<svg xmlns="http://www.w3.org/2000/svg" xmlns:xlink="http://www.w3.org/1999/xlink" width="150" zoomAndPan="magnify" viewBox="0 0 112.5 112.499997" height="150" preserveAspectRatio="xMidYMid meet" version="1.0"><defs><clipPath id="33f68722a1"><path d="M 0 0 L 112.003906 0 L 112.003906 112.003906 L 0 112.003906 Z M 0 0 " clip-rule="nonzero"/></clipPath></defs><path fill="#ffffff" d="M 14.488281 36.34375 L 17.949219 38.328125 L 19.179688 36.1875 L 19.785156 36.53125 L 18.179688 39.332031 L 14.109375 36.996094 Z M 14.488281 36.34375 " fill-opacity="1" fill-rule="nonzero"/><path fill="#ffffff" d="M 22.109375 33.183594 L 20.121094 36.019531 L 16.28125 33.332031 L 18.253906 30.511719 L 18.855469 30.929688 L 17.308594 33.136719 L 18.34375 33.859375 L 19.828125 31.742188 L 20.398438 32.136719 L 18.917969 34.257812 L 19.949219 34.980469 L 21.503906 32.757812 Z M 22.109375 33.183594 " fill-opacity="1" fill-rule="nonzero"/><path fill="#ffffff" d="M 24.011719 29.410156 L 22.347656 31.332031 L 22.800781 32.3125 L 22.277344 32.914062 L 20.113281 28.253906 L 20.652344 27.632812 L 25.574219 29.121094 L 25.046875 29.722656 Z M 20.976562 28.457031 L 22.015625 30.667969 L 23.316406 29.171875 Z M 20.976562 28.457031 " fill-opacity="1" fill-rule="nonzero"/><path fill="#ffffff" d="M 25.988281 28.753906 L 22.777344 25.34375 L 25.195312 23.074219 L 25.695312 23.605469 L 23.828125 25.363281 L 24.804688 26.40625 L 26.582031 24.734375 L 27.058594 25.242188 L 25.28125 26.914062 L 26.535156 28.246094 Z M 25.988281 28.753906 " fill-opacity="1" fill-rule="nonzero"/><path fill="#ffffff" d="M 28.730469 22.875 L 28.511719 20.421875 L 29.226562 19.867188 L 29.246094 19.894531 L 29.449219 23.195312 L 30.628906 24.714844 L 30.039062 25.175781 L 28.859375 23.65625 L 25.753906 22.609375 L 25.734375 22.582031 L 26.441406 22.035156 Z M 28.730469 22.875 " fill-opacity="1" fill-rule="nonzero"/><path fill="#ffffff" d="M 32.875 17.566406 C 33.207031 17.371094 33.539062 17.253906 33.867188 17.210938 C 34.199219 17.167969 34.5 17.195312 34.769531 17.292969 C 35.042969 17.390625 35.289062 17.53125 35.507812 17.710938 C 35.730469 17.890625 35.914062 18.113281 36.070312 18.367188 C 36.234375 18.625 36.34375 18.902344 36.402344 19.1875 C 36.460938 19.476562 36.46875 19.769531 36.421875 20.054688 C 36.375 20.347656 36.253906 20.628906 36.050781 20.902344 C 35.851562 21.179688 35.578125 21.414062 35.238281 21.613281 L 33.707031 22.507812 L 31.34375 18.457031 Z M 33.988281 21.511719 L 34.878906 20.988281 C 35.339844 20.71875 35.605469 20.375 35.675781 19.953125 C 35.75 19.53125 35.660156 19.128906 35.425781 18.738281 C 35.28125 18.503906 35.097656 18.3125 34.890625 18.167969 C 34.679688 18.023438 34.429688 17.941406 34.136719 17.929688 C 33.84375 17.917969 33.546875 18.007812 33.242188 18.183594 L 32.351562 18.703125 Z M 33.988281 21.511719 " fill-opacity="1" fill-rule="nonzero"/><path fill="#ffffff" d="M 41.136719 18.652344 L 37.984375 20.085938 L 36.039062 15.820312 L 39.171875 14.390625 L 39.476562 15.058594 L 37.023438 16.171875 L 37.550781 17.324219 L 39.902344 16.253906 L 40.191406 16.886719 L 37.835938 17.957031 L 38.355469 19.105469 L 40.824219 17.984375 Z M 41.136719 18.652344 " fill-opacity="1" fill-rule="nonzero"/><path fill="#ffffff" d="M 41.113281 13.671875 L 42.433594 17.4375 L 44.765625 16.621094 L 44.992188 17.28125 L 41.953125 18.34375 L 40.402344 13.917969 Z M 41.113281 13.671875 " fill-opacity="1" fill-rule="nonzero"/><path fill="#ffffff" d="M 45.621094 17.132812 L 44.351562 12.613281 L 45.070312 12.414062 L 46.335938 16.929688 Z M 45.621094 17.132812 " fill-opacity="1" fill-rule="nonzero"/><path fill="#ffffff" d="M 50.039062 12.394531 C 49.847656 12.269531 49.632812 12.183594 49.386719 12.144531 C 49.144531 12.105469 48.914062 12.105469 48.695312 12.152344 C 48.175781 12.261719 47.796875 12.511719 47.554688 12.917969 C 47.320312 13.320312 47.253906 13.773438 47.359375 14.277344 C 47.453125 14.742188 47.671875 15.105469 48.023438 15.367188 C 48.375 15.628906 48.828125 15.699219 49.386719 15.589844 C 49.8125 15.503906 50.160156 15.292969 50.429688 14.957031 L 50.238281 14.023438 L 48.957031 14.28125 L 48.824219 13.625 L 50.789062 13.226562 L 51.167969 15.109375 C 50.792969 15.738281 50.242188 16.128906 49.527344 16.277344 C 49.121094 16.359375 48.742188 16.367188 48.398438 16.304688 C 48.054688 16.238281 47.769531 16.113281 47.535156 15.933594 C 47.304688 15.75 47.109375 15.535156 46.960938 15.277344 C 46.8125 15.023438 46.699219 14.738281 46.636719 14.425781 C 46.496094 13.726562 46.59375 13.101562 46.925781 12.542969 C 47.261719 11.984375 47.804688 11.632812 48.554688 11.480469 C 49.222656 11.347656 49.835938 11.464844 50.398438 11.832031 Z M 50.039062 12.394531 " fill-opacity="1" fill-rule="nonzero"/><path fill="#ffffff" d="M 55.378906 15.421875 L 55.203125 13.476562 L 52.734375 13.699219 L 52.90625 15.640625 L 52.160156 15.707031 L 51.738281 11.035156 L 52.484375 10.96875 L 52.667969 13.003906 L 55.136719 12.785156 L 54.957031 10.746094 L 55.699219 10.679688 L 56.117188 15.355469 Z M 55.378906 15.421875 " fill-opacity="1" fill-rule="nonzero"/><path fill="#ffffff" d="M 58.28125 11.335938 L 56.742188 11.320312 L 56.75 10.640625 L 60.582031 10.675781 L 60.574219 11.355469 L 59.039062 11.339844 L 59 15.351562 L 58.242188 15.34375 Z M 58.28125 11.335938 " fill-opacity="1" fill-rule="nonzero"/><path fill="#ffffff" d="M 64.296875 12.0625 C 64.203125 11.894531 64.054688 11.753906 63.859375 11.636719 C 63.652344 11.523438 63.433594 11.453125 63.199219 11.425781 C 62.878906 11.394531 62.609375 11.429688 62.398438 11.535156 C 62.183594 11.640625 62.066406 11.804688 62.046875 12.019531 C 62.027344 12.226562 62.105469 12.382812 62.289062 12.496094 C 62.476562 12.609375 62.746094 12.710938 63.109375 12.800781 C 63.382812 12.867188 63.609375 12.9375 63.804688 13.011719 C 63.992188 13.085938 64.179688 13.183594 64.359375 13.308594 C 64.542969 13.429688 64.671875 13.589844 64.753906 13.777344 C 64.835938 13.964844 64.863281 14.1875 64.839844 14.4375 C 64.808594 14.765625 64.683594 15.035156 64.464844 15.238281 C 64.25 15.441406 64 15.574219 63.714844 15.636719 C 63.425781 15.699219 63.109375 15.714844 62.765625 15.679688 C 61.808594 15.585938 61.175781 15.164062 60.863281 14.421875 L 61.460938 14.101562 C 61.710938 14.640625 62.167969 14.949219 62.835938 15.015625 C 63.039062 15.035156 63.230469 15.03125 63.402344 15.003906 C 63.574219 14.976562 63.730469 14.910156 63.863281 14.796875 C 63.996094 14.6875 64.074219 14.542969 64.09375 14.359375 C 64.117188 14.125 64.027344 13.9375 63.828125 13.804688 C 63.625 13.671875 63.34375 13.5625 62.976562 13.472656 C 62.769531 13.425781 62.585938 13.375 62.4375 13.324219 C 62.285156 13.273438 62.128906 13.207031 61.96875 13.125 C 61.804688 13.039062 61.675781 12.945312 61.582031 12.84375 C 61.488281 12.742188 61.410156 12.609375 61.355469 12.453125 C 61.300781 12.296875 61.285156 12.121094 61.304688 11.933594 C 61.328125 11.699219 61.402344 11.503906 61.527344 11.339844 C 61.652344 11.171875 61.804688 11.046875 61.996094 10.960938 C 62.183594 10.878906 62.382812 10.816406 62.589844 10.785156 C 62.800781 10.753906 63.015625 10.75 63.238281 10.773438 C 64.066406 10.855469 64.621094 11.175781 64.894531 11.734375 Z M 64.296875 12.0625 " fill-opacity="1" fill-rule="nonzero"/><path fill="#ffffff" d="M 60.023438 98.511719 L 58.53125 100.796875 L 58.371094 100.804688 L 56.699219 98.660156 L 56.855469 102.257812 L 56.109375 102.289062 L 55.898438 97.605469 L 56.769531 97.566406 L 58.414062 99.695312 L 59.855469 97.433594 L 60.726562 97.394531 L 60.933594 102.078125 L 60.1875 102.109375 Z M 60.023438 98.511719 " fill-opacity="1" fill-rule="nonzero"/><path fill="#ffffff" d="M 62.359375 101.84375 L 61.71875 97.195312 L 62.457031 97.09375 L 63.09375 101.738281 Z M 62.359375 101.84375 " fill-opacity="1" fill-rule="nonzero"/><path fill="#ffffff" d="M 68.199219 100.128906 C 67.839844 100.683594 67.316406 101.035156 66.625 101.183594 C 66.222656 101.269531 65.851562 101.28125 65.511719 101.21875 C 65.167969 101.15625 64.875 101.035156 64.636719 100.851562 C 64.394531 100.671875 64.195312 100.457031 64.035156 100.199219 C 63.878906 99.945312 63.765625 99.664062 63.699219 99.351562 C 63.628906 99.039062 63.613281 98.738281 63.65625 98.433594 C 63.695312 98.128906 63.785156 97.84375 63.925781 97.574219 C 64.066406 97.304688 64.285156 97.066406 64.570312 96.859375 C 64.851562 96.65625 65.195312 96.515625 65.589844 96.425781 C 66.242188 96.285156 66.855469 96.394531 67.414062 96.757812 L 67.023438 97.332031 C 66.636719 97.089844 66.207031 97.019531 65.734375 97.121094 C 65.191406 97.238281 64.808594 97.5 64.589844 97.898438 C 64.367188 98.296875 64.3125 98.730469 64.414062 99.191406 C 64.515625 99.652344 64.75 100.015625 65.105469 100.277344 C 65.460938 100.542969 65.914062 100.613281 66.46875 100.496094 C 66.683594 100.449219 66.894531 100.355469 67.09375 100.222656 C 67.292969 100.089844 67.457031 99.925781 67.578125 99.734375 Z M 68.199219 100.128906 " fill-opacity="1" fill-rule="nonzero"/><path fill="#ffffff" d="M 73.207031 99.117188 L 72.375 99.394531 L 70.507812 98.316406 L 69.570312 98.628906 L 70.085938 100.167969 L 69.375 100.40625 L 67.875 95.957031 C 68.105469 95.878906 68.449219 95.765625 68.910156 95.613281 C 69.371094 95.457031 69.71875 95.34375 69.949219 95.265625 C 70.441406 95.097656 70.871094 95.109375 71.246094 95.304688 C 71.621094 95.496094 71.871094 95.792969 72.003906 96.191406 C 72.125 96.542969 72.128906 96.878906 72.015625 97.199219 C 71.90625 97.523438 71.65625 97.78125 71.265625 97.980469 L 73.089844 99.011719 L 73.207031 99.113281 Z M 68.804688 96.371094 L 69.347656 97.984375 L 70.699219 97.527344 C 70.980469 97.433594 71.164062 97.285156 71.261719 97.085938 C 71.351562 96.882812 71.363281 96.671875 71.285156 96.445312 C 71.210938 96.226562 71.074219 96.0625 70.875 95.945312 C 70.675781 95.832031 70.441406 95.820312 70.164062 95.914062 Z M 68.804688 96.371094 " fill-opacity="1" fill-rule="nonzero"/><path fill="#ffffff" d="M 76.007812 93.355469 C 76.589844 93.605469 77.027344 94.035156 77.316406 94.644531 C 77.457031 94.9375 77.542969 95.234375 77.574219 95.535156 C 77.605469 95.839844 77.585938 96.136719 77.515625 96.421875 C 77.441406 96.710938 77.289062 96.984375 77.066406 97.234375 C 76.839844 97.488281 76.550781 97.699219 76.195312 97.871094 C 75.839844 98.039062 75.492188 98.128906 75.148438 98.140625 C 74.8125 98.152344 74.503906 98.097656 74.234375 97.972656 C 73.96875 97.851562 73.726562 97.679688 73.515625 97.46875 C 73.300781 97.253906 73.128906 97.007812 72.992188 96.71875 C 72.683594 96.074219 72.632812 95.445312 72.839844 94.835938 C 73.050781 94.222656 73.472656 93.765625 74.109375 93.464844 C 74.796875 93.140625 75.429688 93.101562 76.007812 93.355469 Z M 74.023438 96.921875 C 74.164062 97.070312 74.335938 97.195312 74.523438 97.289062 C 74.710938 97.386719 74.925781 97.433594 75.164062 97.429688 C 75.40625 97.425781 75.652344 97.367188 75.898438 97.246094 C 76.394531 97.011719 76.695312 96.683594 76.804688 96.269531 C 76.914062 95.855469 76.863281 95.425781 76.652344 94.980469 C 76.523438 94.707031 76.351562 94.476562 76.140625 94.292969 C 75.929688 94.105469 75.671875 93.984375 75.359375 93.933594 C 75.046875 93.882812 74.734375 93.929688 74.402344 94.082031 C 73.925781 94.3125 73.628906 94.632812 73.507812 95.058594 C 73.382812 95.484375 73.4375 95.933594 73.664062 96.40625 C 73.757812 96.597656 73.882812 96.765625 74.023438 96.921875 Z M 74.023438 96.921875 " fill-opacity="1" fill-rule="nonzero"/><path fill="#ffffff" d="M 80.339844 91.226562 C 80.121094 91.175781 79.886719 91.179688 79.648438 91.226562 C 79.40625 91.277344 79.191406 91.359375 79.003906 91.480469 C 78.554688 91.765625 78.296875 92.140625 78.214844 92.601562 C 78.140625 93.0625 78.238281 93.507812 78.519531 93.941406 C 78.777344 94.339844 79.109375 94.597656 79.53125 94.71875 C 79.953125 94.835938 80.402344 94.742188 80.886719 94.433594 C 81.253906 94.199219 81.503906 93.878906 81.632812 93.46875 L 81.121094 92.664062 L 80.015625 93.367188 L 79.660156 92.796875 L 81.347656 91.722656 L 82.382812 93.34375 C 82.253906 94.070312 81.886719 94.628906 81.265625 95.023438 C 80.914062 95.25 80.570312 95.390625 80.226562 95.453125 C 79.882812 95.515625 79.566406 95.503906 79.285156 95.417969 C 79 95.332031 78.746094 95.199219 78.511719 95.011719 C 78.269531 94.820312 78.066406 94.59375 77.90625 94.332031 C 77.523438 93.730469 77.390625 93.113281 77.5 92.472656 C 77.609375 91.828125 77.992188 91.304688 78.636719 90.890625 C 79.210938 90.523438 79.824219 90.414062 80.480469 90.554688 Z M 80.339844 91.226562 " fill-opacity="1" fill-rule="nonzero"/><path fill="#ffffff" d="M 86.9375 90.640625 L 86.257812 91.199219 L 84.125 90.84375 L 83.355469 91.46875 L 84.378906 92.726562 L 83.796875 93.199219 L 80.828125 89.558594 C 81.015625 89.40625 81.296875 89.175781 81.675781 88.871094 C 82.054688 88.566406 82.339844 88.335938 82.523438 88.1875 C 82.925781 87.859375 83.335938 87.722656 83.753906 87.769531 C 84.171875 87.816406 84.511719 88.003906 84.777344 88.328125 C 85.011719 88.617188 85.132812 88.933594 85.144531 89.269531 C 85.15625 89.609375 85.011719 89.945312 84.714844 90.265625 L 86.789062 90.589844 Z M 81.851562 89.617188 L 82.925781 90.9375 L 84.03125 90.035156 C 84.261719 89.851562 84.382812 89.644531 84.398438 89.425781 C 84.414062 89.203125 84.347656 89.003906 84.199219 88.816406 C 84.054688 88.636719 83.867188 88.53125 83.640625 88.492188 C 83.414062 88.449219 83.1875 88.527344 82.960938 88.710938 Z M 81.851562 89.617188 " fill-opacity="1" fill-rule="nonzero"/><path fill="#ffffff" d="M 90.160156 87.414062 L 87.730469 89.882812 L 84.390625 86.585938 L 86.8125 84.136719 L 87.332031 84.648438 L 85.441406 86.566406 L 86.34375 87.457031 L 88.160156 85.617188 L 88.65625 86.105469 L 86.839844 87.945312 L 87.738281 88.828125 L 89.640625 86.898438 Z M 90.160156 87.414062 " fill-opacity="1" fill-rule="nonzero"/><path fill="#ffffff" d="M 93.148438 83.761719 L 90.984375 86.46875 L 87.320312 83.539062 L 89.472656 80.847656 L 90.042969 81.304688 L 88.359375 83.410156 L 89.347656 84.203125 L 90.964844 82.179688 L 91.507812 82.613281 L 89.894531 84.636719 L 90.878906 85.425781 L 92.574219 83.304688 Z M 93.148438 83.761719 " fill-opacity="1" fill-rule="nonzero"/><path fill="#ffffff" d="M 94.46875 79.292969 L 91.652344 77.507812 L 92.054688 76.871094 L 96.015625 79.378906 L 95.710938 79.859375 L 91.492188 80.335938 L 94.289062 82.105469 L 93.882812 82.746094 L 89.921875 80.234375 L 90.226562 79.75 Z M 94.46875 79.292969 " fill-opacity="1" fill-rule="nonzero"/><path fill="#ffffff" d="M 94.667969 73.941406 C 94.476562 73.972656 94.292969 74.058594 94.121094 74.203125 C 93.949219 74.351562 93.808594 74.535156 93.695312 74.753906 C 93.554688 75.042969 93.5 75.304688 93.527344 75.539062 C 93.554688 75.777344 93.664062 75.941406 93.863281 76.035156 C 94.046875 76.128906 94.222656 76.105469 94.394531 75.96875 C 94.5625 75.835938 94.753906 75.617188 94.960938 75.304688 C 95.117188 75.070312 95.265625 74.878906 95.398438 74.730469 C 95.53125 74.574219 95.691406 74.433594 95.867188 74.308594 C 96.046875 74.179688 96.238281 74.109375 96.441406 74.097656 C 96.648438 74.085938 96.863281 74.132812 97.089844 74.242188 C 97.390625 74.390625 97.597656 74.597656 97.714844 74.871094 C 97.832031 75.140625 97.871094 75.425781 97.832031 75.714844 C 97.792969 76.003906 97.695312 76.304688 97.542969 76.621094 C 97.125 77.484375 96.511719 77.933594 95.703125 77.96875 L 95.613281 77.296875 C 96.207031 77.25 96.648438 76.921875 96.945312 76.320312 C 97.035156 76.136719 97.09375 75.957031 97.128906 75.785156 C 97.164062 75.613281 97.152344 75.445312 97.09375 75.28125 C 97.035156 75.113281 96.925781 74.992188 96.761719 74.914062 C 96.550781 74.8125 96.34375 74.828125 96.152344 74.96875 C 95.953125 75.109375 95.753906 75.339844 95.546875 75.65625 C 95.429688 75.835938 95.324219 75.984375 95.222656 76.113281 C 95.125 76.234375 95.003906 76.355469 94.871094 76.480469 C 94.738281 76.605469 94.601562 76.695312 94.472656 76.746094 C 94.34375 76.800781 94.191406 76.824219 94.03125 76.820312 C 93.867188 76.816406 93.695312 76.773438 93.523438 76.691406 C 93.3125 76.589844 93.152344 76.449219 93.039062 76.277344 C 92.925781 76.105469 92.859375 75.914062 92.84375 75.707031 C 92.828125 75.496094 92.84375 75.296875 92.886719 75.085938 C 92.933594 74.878906 93.003906 74.675781 93.101562 74.476562 C 93.464844 73.722656 93.957031 73.316406 94.574219 73.25 Z M 94.667969 73.941406 " fill-opacity="1" fill-rule="nonzero"/><g clip-path="url(#33f68722a1)"><path fill="#ffffff" d="M 56 112.003906 C 25.125 112.003906 0 86.878906 0 56 C 0 25.121094 25.125 0 56 0 C 86.882812 0 112.003906 25.125 112.003906 56 C 112.003906 86.882812 86.882812 112.003906 56 112.003906 Z M 56 0.789062 C 25.558594 0.789062 0.789062 25.558594 0.789062 56 C 0.789062 86.445312 25.558594 111.214844 56 111.214844 C 86.445312 111.214844 111.214844 86.445312 111.214844 56 C 111.214844 25.558594 86.445312 0.789062 56 0.789062 Z M 56 0.789062 " fill-opacity="1" fill-rule="nonzero"/></g><path fill="#ffffff" d="M 7.570312 56.816406 C 7.355469 56.816406 7.175781 56.640625 7.175781 56.421875 C 7.175781 29.445312 29.125 7.496094 56.105469 7.496094 C 61.472656 7.496094 66.746094 8.359375 71.78125 10.0625 C 71.984375 10.132812 72.097656 10.351562 72.027344 10.5625 C 71.960938 10.769531 71.738281 10.882812 71.527344 10.808594 C 66.574219 9.136719 61.382812 8.285156 56.105469 8.285156 C 29.5625 8.285156 7.964844 29.875 7.964844 56.421875 C 7.964844 56.644531 7.789062 56.816406 7.570312 56.816406 Z M 7.570312 56.816406 " fill-opacity="1" fill-rule="nonzero"/><path fill="#ffffff" d="M 56.101562 105.351562 C 50.757812 105.351562 45.507812 104.496094 40.488281 102.808594 C 40.285156 102.738281 40.171875 102.515625 40.242188 102.308594 C 40.3125 102.101562 40.53125 101.992188 40.742188 102.058594 C 45.675781 103.71875 50.84375 104.5625 56.101562 104.5625 C 82.640625 104.5625 104.238281 82.96875 104.238281 56.421875 C 104.238281 56.207031 104.414062 56.027344 104.632812 56.027344 C 104.847656 56.027344 105.027344 56.207031 105.027344 56.421875 C 105.027344 83.402344 83.078125 105.351562 56.101562 105.351562 Z M 56.101562 105.351562 " fill-opacity="1" fill-rule="nonzero"/><path fill="#ffffff" d="M 56.375 41.203125 C 56.554688 41.203125 56.554688 40.925781 56.375 40.925781 C 56.199219 40.925781 56.199219 41.203125 56.375 41.203125 Z M 56.375 41.203125 " fill-opacity="1" fill-rule="nonzero"/><path fill="#ffffff" d="M 82.34375 8.960938 C 81.925781 8.851562 81.507812 8.757812 81.070312 8.8125 C 80.953125 8.777344 80.832031 8.820312 80.714844 8.824219 C 80.648438 8.800781 80.582031 8.804688 80.523438 8.84375 C 80.492188 8.847656 80.457031 8.851562 80.421875 8.859375 C 80.351562 8.839844 80.285156 8.855469 80.222656 8.882812 C 80.089844 8.875 79.957031 8.894531 79.835938 8.953125 C 79.804688 8.964844 79.773438 8.96875 79.742188 8.96875 C 79.578125 8.945312 79.445312 9.019531 79.308594 9.078125 L 79.214844 9.105469 C 78.828125 9.183594 78.460938 9.3125 78.125 9.523438 C 78.0625 9.519531 78.023438 9.554688 77.988281 9.601562 C 77.78125 9.660156 77.597656 9.757812 77.433594 9.894531 C 77.34375 9.894531 77.300781 9.953125 77.253906 10.011719 C 77.015625 10.148438 76.757812 10.265625 76.578125 10.488281 C 76.09375 10.816406 75.726562 11.269531 75.355469 11.714844 C 75.304688 11.777344 75.285156 11.863281 75.253906 11.933594 C 75.140625 11.878906 75.03125 11.820312 74.925781 11.761719 C 74.796875 11.835938 74.664062 11.910156 74.53125 11.980469 C 74.75 12.109375 74.964844 12.246094 75.183594 12.375 C 76.507812 13.164062 77.839844 13.929688 79.210938 14.632812 L 79.46875 14.773438 C 79.582031 14.929688 79.664062 15.109375 79.804688 15.242188 C 79.804688 15.332031 79.871094 15.367188 79.925781 15.414062 C 80.125 15.761719 80.378906 16.0625 80.644531 16.359375 C 80.714844 16.515625 80.824219 16.644531 80.949219 16.757812 C 81.238281 17.164062 81.527344 17.570312 81.816406 17.972656 C 82.042969 17.980469 82.140625 17.914062 81.949219 17.714844 C 81.925781 17.691406 81.910156 17.660156 81.910156 17.628906 C 82.125 17.988281 82.402344 17.566406 82.65625 17.6875 C 82.636719 17.808594 82.589844 17.941406 82.644531 18.078125 C 82.660156 18.105469 82.675781 18.132812 82.699219 18.15625 C 82.820312 18.273438 82.71875 18.550781 82.992188 18.554688 C 83.039062 18.554688 83.03125 18.566406 82.996094 18.597656 C 82.738281 18.835938 83.066406 18.902344 83.136719 19.042969 C 83.144531 19.070312 83.21875 19.046875 83.195312 19.105469 C 83.175781 19.136719 83.160156 19.164062 83.179688 19.203125 C 83.335938 19.234375 83.445312 19.160156 83.542969 19.050781 C 83.523438 18.980469 83.5625 18.949219 83.628906 18.9375 C 83.679688 18.878906 83.730469 18.816406 83.695312 18.730469 C 83.542969 18.640625 83.421875 18.527344 83.316406 18.371094 C 83.421875 18.378906 83.441406 18.554688 83.554688 18.476562 C 83.652344 18.414062 83.605469 18.3125 83.582031 18.222656 C 83.566406 18.148438 83.484375 18.089844 83.527344 18.003906 C 83.507812 17.867188 83.414062 17.777344 83.339844 17.679688 C 82.902344 17.113281 82.335938 16.667969 81.828125 16.167969 L 81.609375 16 C 81.59375 15.902344 81.507812 15.863281 81.445312 15.8125 C 82.277344 16.289062 83.132812 16.714844 83.984375 17.15625 C 84.957031 17.660156 85.929688 18.164062 86.894531 18.671875 C 86.921875 18.667969 86.941406 18.660156 86.957031 18.652344 C 87.035156 18.941406 87.296875 18.980469 87.519531 19.066406 C 87.554688 19.074219 87.59375 19.070312 87.628906 19.0625 C 87.632812 19.0625 87.632812 19.058594 87.636719 19.058594 C 87.878906 19.242188 88.15625 19.375 88.441406 19.476562 C 88.539062 19.535156 88.621094 19.628906 88.746094 19.625 C 88.753906 19.648438 88.769531 19.675781 88.785156 19.703125 C 89.078125 19.894531 89.382812 20.058594 89.742188 20.058594 C 89.738281 20.082031 89.738281 20.105469 89.746094 20.128906 C 89.785156 20.214844 89.839844 20.289062 89.898438 20.355469 C 90.398438 20.882812 90.898438 21.410156 91.421875 21.910156 L 91.484375 21.976562 C 91.484375 22 91.484375 22.027344 91.476562 22.050781 C 91.304688 22.738281 91.289062 23.453125 91.148438 24.148438 C 91.132812 24.21875 91.144531 24.289062 91.144531 24.355469 C 91.453125 24.300781 91.601562 24.519531 91.746094 24.730469 C 91.757812 24.734375 91.765625 24.734375 91.777344 24.734375 C 91.824219 24.757812 91.894531 24.75 91.882812 24.824219 C 91.878906 24.835938 91.785156 24.832031 91.730469 24.835938 C 91.746094 24.933594 91.8125 25 91.871094 25.074219 C 91.890625 25.097656 91.90625 25.113281 91.949219 25.105469 C 92.09375 25.066406 92.101562 25.070312 92.109375 25.167969 C 92.113281 25.222656 92.078125 25.300781 92.164062 25.292969 C 92.457031 25.261719 92.367188 25.515625 92.4375 25.640625 C 92.648438 25.539062 92.863281 25.511719 93.078125 25.652344 C 93.097656 25.574219 93.003906 25.523438 93.066406 25.472656 C 93.136719 25.417969 93.1875 25.503906 93.246094 25.53125 C 93.195312 25.019531 93.035156 24.546875 92.8125 24.089844 C 92.742188 23.734375 92.566406 23.421875 92.394531 23.105469 C 92.390625 23.132812 92.375 23.148438 92.359375 23.15625 C 92.371094 23.140625 92.382812 23.121094 92.394531 23.105469 C 92.390625 22.996094 92.328125 22.910156 92.265625 22.824219 C 92.296875 22.796875 92.25 22.757812 92.242188 22.722656 C 92.328125 22.816406 92.429688 22.898438 92.507812 23.007812 C 93.457031 24.019531 94.488281 24.949219 95.449219 25.953125 C 96.195312 26.722656 96.945312 27.5 97.304688 28.546875 C 97.335938 28.636719 97.382812 28.722656 97.472656 28.765625 L 97.496094 28.753906 C 97.492188 28.757812 97.492188 28.765625 97.488281 28.769531 L 97.488281 28.777344 C 97.484375 28.777344 97.480469 28.777344 97.476562 28.773438 C 97.484375 28.902344 97.460938 29.011719 97.402344 29.136719 C 97.21875 29.507812 97.011719 29.867188 96.910156 30.269531 C 96.714844 30.605469 96.617188 30.976562 96.5 31.339844 C 96.375 31.722656 96.203125 32.089844 96.167969 32.496094 C 95.945312 33.121094 95.839844 33.773438 95.734375 34.425781 C 95.664062 34.625 95.632812 34.832031 95.636719 35.042969 C 95.636719 35.074219 95.632812 35.105469 95.632812 35.136719 C 95.714844 35.246094 95.664062 35.347656 95.613281 35.449219 C 95.675781 35.507812 95.75 35.53125 95.828125 35.546875 C 95.835938 35.5625 95.839844 35.574219 95.84375 35.589844 C 95.894531 35.660156 95.957031 35.71875 96.054688 35.726562 C 96.074219 35.726562 96.089844 35.722656 96.109375 35.71875 L 96.113281 35.71875 C 96.105469 35.71875 96.097656 35.722656 96.089844 35.722656 C 96.035156 35.890625 95.742188 35.996094 95.949219 36.242188 C 95.964844 36.242188 95.976562 36.238281 95.992188 36.230469 L 95.992188 36.238281 L 95.996094 36.238281 C 95.992188 36.238281 95.988281 36.238281 95.984375 36.242188 C 95.933594 36.257812 95.917969 36.296875 95.910156 36.335938 C 95.964844 36.488281 96.058594 36.59375 96.214844 36.457031 C 96.296875 36.386719 96.371094 36.285156 96.402344 36.171875 C 96.558594 35.957031 96.664062 35.722656 96.734375 35.46875 C 96.808594 35.375 96.863281 35.269531 96.875 35.140625 C 97.089844 34.761719 97.253906 34.371094 97.382812 33.953125 C 97.527344 33.6875 97.613281 33.398438 97.65625 33.105469 C 97.734375 32.972656 97.78125 32.835938 97.785156 32.683594 C 97.949219 32.195312 98.066406 31.691406 98.101562 31.175781 C 98.113281 31.15625 98.121094 31.136719 98.128906 31.113281 C 98.152344 30.980469 98.203125 30.851562 98.171875 30.707031 C 98.203125 30.660156 98.222656 30.609375 98.195312 30.550781 C 98.214844 30.417969 98.261719 30.28125 98.226562 30.144531 C 98.289062 29.945312 98.226562 29.738281 98.25 29.539062 C 98.253906 29.503906 98.253906 29.46875 98.269531 29.445312 C 98.273438 29.453125 98.277344 29.464844 98.28125 29.472656 C 99.085938 30.617188 99.636719 31.882812 100.035156 33.21875 C 100.328125 34.199219 100.636719 35.171875 101.027344 36.121094 C 101.046875 36.15625 101.0625 36.191406 101.082031 36.222656 C 101.03125 36.367188 100.898438 36.464844 100.824219 36.605469 C 100.667969 36.839844 100.457031 37.046875 100.378906 37.332031 C 100.363281 37.347656 100.355469 37.363281 100.355469 37.386719 C 100.289062 37.460938 100.269531 37.5625 100.253906 37.65625 C 100.105469 37.921875 100.027344 38.203125 99.980469 38.5 C 99.902344 38.730469 99.84375 38.96875 99.886719 39.214844 L 99.882812 39.214844 C 99.765625 39.625 99.816406 40.042969 99.847656 40.457031 C 99.855469 40.558594 99.878906 40.695312 100.027344 40.730469 C 100.167969 40.761719 100.277344 40.710938 100.363281 40.605469 C 100.46875 40.476562 100.5625 40.347656 100.625 40.195312 C 100.753906 39.859375 100.847656 39.515625 100.886719 39.15625 C 100.957031 39.007812 100.988281 38.855469 100.984375 38.6875 C 101.097656 38.425781 101.125 38.140625 101.140625 37.855469 C 101.179688 37.777344 101.183594 37.695312 101.160156 37.609375 C 101.203125 37.511719 101.214844 37.402344 101.191406 37.296875 C 101.203125 37.160156 101.21875 37.023438 101.230469 36.886719 L 101.207031 36.816406 C 101.226562 36.804688 101.242188 36.789062 101.25 36.769531 C 101.261719 36.820312 101.273438 36.867188 101.289062 36.917969 C 101.742188 38.230469 102.1875 39.546875 102.550781 40.890625 C 103.058594 42.777344 103.347656 44.707031 103.625 46.636719 C 103.625 46.644531 103.628906 46.652344 103.628906 46.660156 C 103.476562 46.695312 103.316406 46.640625 103.171875 46.730469 C 102.933594 46.878906 102.710938 47.03125 102.554688 47.273438 C 102.539062 47.285156 102.523438 47.300781 102.515625 47.320312 C 102.054688 47.671875 101.667969 48.085938 101.304688 48.53125 C 100.957031 48.828125 100.714844 49.21875 100.464844 49.59375 C 100.351562 49.753906 100.265625 49.9375 100.308594 50.148438 C 100.34375 50.351562 100.515625 50.359375 100.660156 50.359375 C 100.808594 50.359375 100.964844 50.335938 101.109375 50.285156 C 101.898438 50.039062 102.550781 49.597656 103.023438 48.90625 C 103.039062 48.886719 103.050781 48.867188 103.066406 48.851562 C 103.285156 48.558594 103.527344 48.28125 103.664062 47.929688 C 103.683594 47.878906 103.710938 47.820312 103.765625 47.792969 C 103.804688 48.941406 103.867188 50.09375 103.867188 51.25 C 103.90625 51.238281 103.945312 51.230469 103.988281 51.21875 C 104.074219 51.199219 104.160156 51.191406 104.242188 51.195312 C 104.246094 50.929688 104.25 50.660156 104.246094 50.390625 C 104.21875 48.636719 104.082031 46.894531 103.828125 45.160156 C 103.839844 45.121094 103.847656 45.078125 103.855469 45.039062 C 103.882812 45.074219 103.910156 45.105469 103.9375 45.136719 C 104.078125 45.308594 104.160156 45.523438 104.324219 45.679688 C 104.347656 45.753906 104.386719 45.816406 104.457031 45.859375 C 104.6875 46.261719 104.992188 46.609375 105.320312 46.929688 L 105.335938 46.925781 C 105.332031 46.925781 105.324219 46.929688 105.320312 46.929688 C 105.332031 46.953125 105.332031 46.980469 105.347656 46.992188 C 105.917969 47.609375 106.570312 48.132812 107.28125 48.582031 C 107.632812 48.800781 108.003906 49.003906 108.394531 49.144531 C 108.632812 49.226562 108.714844 49.179688 108.691406 48.945312 C 108.578125 47.957031 108.242188 47.050781 107.632812 46.253906 C 107.46875 45.988281 107.289062 45.730469 107.023438 45.550781 C 107.011719 45.425781 106.910156 45.386719 106.828125 45.332031 L 106.664062 45.203125 C 106.617188 45.113281 106.554688 45.042969 106.464844 44.988281 C 106.429688 44.960938 106.390625 44.933594 106.355469 44.90625 C 106 44.625 105.585938 44.433594 105.167969 44.269531 C 104.78125 44.113281 104.386719 43.972656 103.957031 44.03125 C 103.855469 44.003906 103.742188 44.050781 103.644531 43.988281 C 103.355469 42.316406 102.941406 40.675781 102.449219 39.054688 C 102.460938 39 102.46875 38.945312 102.449219 38.890625 C 102.445312 38.882812 102.445312 38.878906 102.441406 38.871094 C 102.457031 38.882812 102.472656 38.890625 102.488281 38.902344 L 102.488281 38.921875 C 102.503906 38.96875 102.539062 39 102.5625 39.039062 C 102.785156 39.207031 102.941406 39.453125 103.195312 39.585938 C 103.429688 39.78125 103.667969 39.96875 103.929688 40.125 C 103.949219 40.140625 103.96875 40.15625 103.988281 40.167969 C 104.226562 40.324219 104.433594 40.535156 104.71875 40.621094 C 104.730469 40.636719 104.746094 40.644531 104.765625 40.648438 C 104.804688 40.675781 104.84375 40.699219 104.882812 40.726562 C 104.925781 40.753906 104.960938 40.78125 105 40.808594 C 105.304688 40.984375 105.605469 41.203125 105.996094 41.105469 C 106.238281 41.035156 106.25 40.828125 106.246094 40.636719 C 106.242188 40.375 106.136719 40.148438 105.960938 39.957031 C 105.949219 39.941406 105.933594 39.925781 105.917969 39.914062 C 105.671875 39.511719 105.28125 39.277344 104.910156 39.019531 C 104.433594 38.660156 103.941406 38.324219 103.363281 38.15625 L 103.359375 38.152344 C 103.277344 38.101562 103.207031 38.023438 103.09375 38.050781 C 103.03125 38.003906 102.964844 37.960938 102.878906 37.984375 C 102.765625 37.925781 102.636719 37.902344 102.511719 37.871094 C 102.34375 37.832031 102.160156 37.878906 102.003906 37.777344 L 101.257812 35.625 C 100.960938 34.753906 100.640625 33.886719 100.398438 32.996094 C 100.589844 33.085938 100.671875 33.285156 100.839844 33.394531 C 100.875 33.421875 100.917969 33.449219 100.953125 33.480469 L 101.0625 33.566406 C 101.203125 33.726562 101.34375 33.894531 101.574219 33.9375 C 102.042969 34.292969 102.585938 34.476562 103.148438 34.625 C 103.351562 34.683594 103.546875 34.757812 103.769531 34.742188 C 103.914062 34.820312 104.074219 34.800781 104.230469 34.804688 C 104.488281 34.648438 104.484375 34.308594 104.371094 34.199219 C 104.152344 33.980469 104.332031 33.875 104.40625 33.742188 C 104.472656 33.628906 104.429688 33.601562 104.328125 33.585938 C 103.941406 33.410156 103.527344 33.324219 103.121094 33.230469 C 103.035156 33.160156 102.929688 33.140625 102.832031 33.113281 C 102.320312 32.960938 101.8125 32.808594 101.304688 32.636719 C 100.960938 32.511719 100.601562 32.394531 100.21875 32.449219 C 99.792969 31.148438 99.1875 29.945312 98.308594 28.882812 C 98.222656 28.671875 98.027344 28.554688 97.898438 28.386719 C 97.847656 28.320312 97.800781 28.257812 97.699219 28.28125 C 97.6875 28.265625 97.675781 28.25 97.664062 28.238281 C 97.632812 28.214844 97.625 28.183594 97.628906 28.144531 C 97.28125 27.304688 96.71875 26.617188 96.085938 25.980469 C 96.058594 25.917969 96.035156 25.855469 95.996094 25.777344 C 96.519531 25.890625 97 26.078125 97.507812 26.152344 C 97.8125 26.238281 98.117188 26.316406 98.4375 26.316406 C 98.511719 26.179688 98.5 26.035156 98.480469 25.882812 C 98.464844 25.78125 98.433594 25.613281 98.566406 25.59375 C 98.855469 25.550781 98.886719 25.339844 98.941406 25.128906 C 98.753906 24.964844 98.542969 24.859375 98.300781 24.816406 C 98.058594 24.664062 97.785156 24.617188 97.511719 24.59375 C 97.363281 24.53125 97.203125 24.503906 97.042969 24.519531 C 97.023438 24.507812 97.003906 24.5 96.984375 24.492188 C 96.953125 24.492188 96.925781 24.496094 96.890625 24.5 C 96.757812 24.464844 96.621094 24.464844 96.484375 24.472656 C 96.449219 24.480469 96.425781 24.5 96.410156 24.527344 C 96.410156 24.550781 96.402344 24.570312 96.398438 24.589844 C 96.371094 24.636719 96.34375 24.675781 96.3125 24.675781 C 96.082031 24.679688 96 24.84375 95.917969 25.007812 C 95.753906 25.023438 95.585938 25.015625 95.527344 25.238281 C 95.511719 25.304688 95.484375 25.332031 95.457031 25.332031 C 95.417969 25.296875 95.378906 25.257812 95.347656 25.210938 C 95.261719 25.019531 95.042969 24.972656 94.921875 24.824219 C 94.175781 24.152344 93.5 23.417969 92.792969 22.707031 L 90.511719 20.402344 C 90.488281 20.328125 90.386719 20.3125 90.371094 20.230469 C 90.464844 20.195312 90.550781 20.242188 90.640625 20.253906 C 91.292969 20.355469 91.941406 20.457031 92.601562 20.285156 C 92.785156 20.347656 92.964844 20.292969 93.136719 20.230469 C 93.539062 20.089844 93.636719 19.820312 93.351562 19.535156 C 93.074219 19.253906 92.753906 19.027344 92.371094 18.902344 C 91.957031 18.664062 91.515625 18.511719 91.039062 18.449219 C 90.6875 18.292969 90.316406 18.242188 89.945312 18.179688 C 89.609375 18.078125 89.269531 18.027344 88.917969 18.042969 C 88.667969 17.972656 88.414062 18.003906 88.164062 18.027344 C 87.941406 18 87.726562 18.019531 87.503906 18.054688 C 87.265625 18.089844 87.023438 18.144531 86.78125 18.136719 C 86.308594 17.882812 85.835938 17.632812 85.359375 17.382812 C 84.414062 16.886719 83.460938 16.394531 82.515625 15.894531 C 81.671875 15.449219 80.832031 14.996094 79.988281 14.546875 C 79.253906 14.148438 78.515625 13.75 77.78125 13.34375 C 77.171875 13.003906 76.570312 12.65625 75.960938 12.3125 C 76.230469 12.230469 76.511719 12.332031 76.78125 12.230469 C 77 12.210938 77.21875 12.257812 77.429688 12.171875 C 77.496094 12.191406 77.5625 12.175781 77.621094 12.144531 C 77.789062 12.148438 77.957031 12.121094 78.113281 12.066406 C 78.144531 12.0625 78.175781 12.054688 78.207031 12.050781 C 78.5625 12.046875 78.890625 11.910156 79.226562 11.824219 C 79.453125 11.773438 79.6875 11.71875 79.902344 11.617188 C 80.183594 11.5625 80.4375 11.445312 80.695312 11.332031 C 81.1875 11.140625 81.65625 10.914062 82.097656 10.625 C 82.328125 10.554688 82.507812 10.402344 82.695312 10.269531 C 82.785156 10.265625 82.828125 10.203125 82.875 10.144531 C 83.15625 9.996094 83.433594 9.824219 83.636719 9.566406 L 83.121094 9.195312 C 82.789062 9.175781 82.597656 8.96875 82.34375 8.960938 Z M 81.875 17.570312 C 81.832031 17.46875 81.648438 17.496094 81.667969 17.347656 C 81.671875 17.316406 81.710938 17.28125 81.742188 17.289062 C 81.902344 17.328125 81.851562 17.460938 81.875 17.570312 Z M 92.394531 24.765625 C 92.378906 24.753906 92.367188 24.746094 92.355469 24.738281 C 92.359375 24.726562 92.367188 24.710938 92.367188 24.699219 C 92.375 24.722656 92.382812 24.742188 92.394531 24.765625 Z M 96.023438 35.070312 C 96.015625 35.066406 96.015625 35.0625 96.011719 35.0625 C 96.019531 35.0625 96.023438 35.066406 96.03125 35.066406 C 96.027344 35.066406 96.023438 35.066406 96.023438 35.070312 Z M 98.113281 30.722656 C 98.097656 30.757812 98.082031 30.769531 98.0625 30.773438 Z M 101.167969 50.085938 Z M 101.617188 49.007812 L 101.613281 49.007812 L 101.613281 48.992188 L 101.613281 48.996094 C 101.613281 48.996094 101.613281 48.992188 101.617188 48.992188 C 101.613281 48.992188 101.613281 48.996094 101.617188 49.007812 Z M 101.660156 48.9375 C 101.65625 48.9375 101.652344 48.941406 101.648438 48.941406 L 101.65625 48.933594 L 101.648438 48.933594 L 101.65625 48.925781 L 101.65625 48.933594 C 101.65625 48.9375 101.65625 48.9375 101.660156 48.9375 Z M 102.257812 48.804688 C 102.261719 48.789062 102.265625 48.777344 102.269531 48.765625 C 102.269531 48.777344 102.265625 48.792969 102.257812 48.804688 Z M 105.8125 45.445312 C 105.8125 45.445312 105.816406 45.445312 105.8125 45.445312 C 105.816406 45.449219 105.816406 45.449219 105.8125 45.445312 C 105.8125 45.449219 105.8125 45.449219 105.8125 45.445312 Z M 105.746094 45.992188 L 105.746094 45.996094 C 105.742188 45.992188 105.742188 45.988281 105.738281 45.980469 C 105.742188 45.984375 105.742188 45.988281 105.746094 45.992188 Z M 106.65625 46.582031 L 106.640625 46.582031 C 106.640625 46.582031 106.640625 46.578125 106.644531 46.578125 L 106.648438 46.578125 C 106.648438 46.578125 106.65625 46.578125 106.65625 46.582031 Z M 105.816406 40.878906 C 105.796875 40.878906 105.777344 40.875 105.757812 40.871094 C 105.777344 40.867188 105.796875 40.867188 105.816406 40.878906 C 105.8125 40.875 105.8125 40.875 105.816406 40.878906 Z M 105.960938 40.949219 C 105.929688 40.929688 105.953125 40.917969 105.960938 40.949219 Z M 105.238281 40.28125 C 105.234375 40.28125 105.234375 40.277344 105.230469 40.277344 C 105.238281 40.277344 105.242188 40.277344 105.25 40.273438 C 105.246094 40.273438 105.242188 40.277344 105.238281 40.28125 Z M 103.132812 34.433594 C 103.132812 34.4375 103.132812 34.4375 103.132812 34.433594 C 103.132812 34.4375 103.132812 34.4375 103.132812 34.433594 C 103.132812 34.4375 103.132812 34.4375 103.132812 34.433594 Z M 97.898438 29.230469 C 97.894531 29.226562 97.894531 29.222656 97.890625 29.222656 L 97.929688 29.210938 C 97.921875 29.21875 97.914062 29.226562 97.898438 29.230469 Z M 98.230469 24.945312 Z M 97.53125 25.609375 C 97.523438 25.609375 97.511719 25.613281 97.503906 25.613281 C 97.503906 25.605469 97.515625 25.605469 97.53125 25.609375 Z M 89.675781 19.195312 C 89.660156 19.207031 89.648438 19.21875 89.632812 19.230469 C 89.640625 19.207031 89.65625 19.195312 89.675781 19.195312 Z M 77.835938 11.492188 C 77.835938 11.488281 77.835938 11.488281 77.835938 11.492188 C 77.835938 11.488281 77.839844 11.484375 77.84375 11.480469 C 77.84375 11.484375 77.839844 11.488281 77.835938 11.492188 Z M 81.445312 9.25 L 81.4375 9.25 C 81.441406 9.25 81.445312 9.246094 81.449219 9.246094 C 81.449219 9.246094 81.445312 9.246094 81.445312 9.25 Z M 81.445312 9.25 " fill-opacity="1" fill-rule="nonzero"/><path fill="#ffffff" d="M 105.191406 33.988281 C 105.144531 33.929688 105.082031 33.941406 105.039062 33.972656 C 104.917969 34.054688 104.769531 34.085938 104.644531 34.175781 C 104.339844 34.40625 104.320312 34.519531 104.582031 34.78125 C 104.605469 34.804688 104.636719 34.828125 104.660156 34.851562 C 104.707031 34.878906 104.753906 34.890625 104.808594 34.867188 C 104.867188 34.695312 104.847656 34.53125 104.8125 34.359375 C 104.796875 34.285156 104.804688 34.144531 104.960938 34.257812 C 104.988281 34.277344 105.019531 34.289062 105.054688 34.296875 C 105.109375 34.308594 105.167969 34.316406 105.195312 34.246094 C 105.230469 34.15625 105.261719 34.074219 105.191406 33.988281 Z M 105.191406 33.988281 " fill-opacity="1" fill-rule="nonzero"/><path fill="#ffffff" d="M 105.507812 34.292969 C 105.519531 34.335938 105.550781 34.375 105.605469 34.378906 C 105.566406 34.246094 105.714844 34.242188 105.75 34.160156 C 105.804688 34.042969 105.742188 33.972656 105.65625 33.910156 C 105.621094 33.890625 105.582031 33.875 105.546875 33.855469 C 105.535156 34.003906 105.46875 34.144531 105.507812 34.292969 Z M 105.507812 34.292969 " fill-opacity="1" fill-rule="nonzero"/><path fill="#ffffff" d="M 94.730469 21.722656 C 94.371094 22.222656 94.46875 22.910156 94.941406 23.246094 C 95.386719 23.566406 96.109375 23.429688 96.4375 22.960938 C 96.746094 22.523438 96.601562 21.84375 96.125 21.503906 C 95.664062 21.183594 95.042969 21.277344 94.730469 21.722656 Z M 96.15625 22.796875 C 95.902344 23.132812 95.40625 23.230469 95.097656 23.003906 C 94.765625 22.753906 94.710938 22.242188 94.980469 21.871094 C 95.203125 21.574219 95.652344 21.515625 95.96875 21.746094 C 96.308594 21.996094 96.394531 22.480469 96.15625 22.796875 Z M 96.15625 22.796875 " fill-opacity="1" fill-rule="nonzero"/><path fill="#ffffff" d="M 82.273438 12.441406 C 82.183594 12.410156 82.078125 12.546875 82.007812 12.648438 C 81.769531 12.980469 81.867188 13.546875 82.195312 13.777344 C 82.484375 13.984375 82.839844 13.914062 83.050781 13.613281 C 83.308594 13.253906 83.234375 12.714844 82.914062 12.476562 C 82.703125 12.320312 82.492188 12.519531 82.273438 12.441406 Z M 82.824219 13.445312 C 82.710938 13.601562 82.503906 13.640625 82.359375 13.535156 C 82.179688 13.402344 82.117188 13.019531 82.242188 12.828125 C 82.359375 12.65625 82.558594 12.609375 82.71875 12.722656 C 82.925781 12.863281 82.980469 13.242188 82.824219 13.445312 Z M 82.824219 13.445312 " fill-opacity="1" fill-rule="nonzero"/><path fill="#ffffff" d="M 83.324219 15.613281 C 83.4375 15.804688 83.605469 15.960938 83.769531 16.101562 C 83.90625 16.222656 84.140625 16.210938 84.257812 16.109375 C 84.40625 15.984375 84.4375 15.800781 84.339844 15.601562 C 84.28125 15.484375 84.199219 15.390625 84.125 15.34375 C 83.917969 15.199219 83.730469 15.140625 83.523438 15.179688 C 83.277344 15.222656 83.195312 15.402344 83.324219 15.613281 Z M 84.183594 15.949219 C 84.230469 16.035156 84.191406 16.078125 84.097656 16.050781 C 84.003906 16.023438 83.917969 15.980469 83.917969 15.855469 C 83.957031 15.847656 84.011719 15.8125 84.046875 15.828125 C 84.101562 15.851562 84.15625 15.898438 84.183594 15.949219 Z M 84.007812 15.433594 C 84.101562 15.527344 84.078125 15.597656 83.976562 15.65625 C 83.867188 15.722656 83.753906 15.808594 83.617188 15.75 C 83.496094 15.695312 83.457031 15.539062 83.566406 15.507812 C 83.804688 15.445312 83.882812 15.386719 84.007812 15.433594 Z M 84.007812 15.433594 " fill-opacity="1" fill-rule="nonzero"/><path fill="#ffffff" d="M 102.800781 44.234375 C 103.078125 43.804688 102.847656 43.242188 102.347656 43.144531 C 101.957031 43.074219 101.621094 43.207031 101.375 43.5 C 101.21875 43.6875 101.109375 43.921875 101.285156 44.171875 C 101.4375 44.15625 101.488281 44.070312 101.515625 43.921875 C 101.582031 43.585938 101.878906 43.394531 102.207031 43.429688 C 102.382812 43.449219 102.523438 43.519531 102.585938 43.691406 C 102.652344 43.867188 102.605469 44.03125 102.472656 44.171875 C 102.246094 44.40625 101.957031 44.449219 101.660156 44.277344 C 101.5 44.183594 101.40625 44.210938 101.339844 44.375 C 101.785156 44.824219 102.457031 44.757812 102.800781 44.234375 Z M 102.800781 44.234375 " fill-opacity="1" fill-rule="nonzero"/><path fill="#ffffff" d="M 3.832031 65.875 C 3.894531 66.074219 3.960938 66.273438 4.023438 66.472656 C 4.335938 66.363281 4.578125 66.152344 4.808594 65.929688 C 4.878906 65.902344 4.953125 65.882812 4.984375 65.796875 C 5.171875 65.65625 5.367188 65.53125 5.507812 65.335938 C 5.917969 65.007812 6.28125 64.628906 6.613281 64.21875 C 6.796875 64.003906 6.992188 63.800781 7.128906 63.550781 C 7.292969 63.382812 7.414062 63.175781 7.535156 62.972656 C 7.71875 62.675781 7.953125 62.414062 8.0625 62.074219 C 8.078125 62.046875 8.089844 62.019531 8.105469 61.992188 C 8.210938 61.855469 8.285156 61.707031 8.335938 61.546875 C 8.386719 61.5 8.417969 61.441406 8.421875 61.367188 C 8.5625 61.195312 8.585938 60.964844 8.671875 60.769531 C 8.847656 60.550781 8.835938 60.246094 8.996094 60.015625 C 9.140625 60.699219 9.285156 61.382812 9.417969 62.066406 C 9.582031 62.890625 9.734375 63.714844 9.882812 64.539062 C 10.058594 65.476562 10.226562 66.414062 10.390625 67.355469 C 10.578125 68.410156 10.753906 69.46875 10.9375 70.519531 C 11.027344 71.046875 11.121094 71.574219 11.214844 72.101562 C 11.144531 72.335938 11.023438 72.546875 10.914062 72.765625 C 10.8125 72.964844 10.726562 73.164062 10.683594 73.382812 C 10.585938 73.617188 10.480469 73.851562 10.46875 74.109375 C 10.34375 74.4375 10.285156 74.78125 10.28125 75.128906 C 10.226562 75.503906 10.160156 75.875 10.199219 76.257812 C 10.117188 76.726562 10.121094 77.195312 10.21875 77.664062 C 10.222656 78.066406 10.339844 78.445312 10.523438 78.796875 C 10.703125 79.152344 10.992188 79.140625 11.246094 78.804688 C 11.363281 78.65625 11.464844 78.507812 11.464844 78.3125 C 11.832031 77.738281 11.933594 77.089844 12.035156 76.4375 C 12.050781 76.347656 12.035156 76.253906 12.09375 76.175781 C 12.167969 76.214844 12.152344 76.316406 12.21875 76.363281 C 12.714844 77.324219 13.214844 78.285156 13.710938 79.246094 C 14.167969 80.132812 14.660156 81.007812 15.070312 81.921875 C 15.175781 82.082031 15.152344 82.304688 15.308594 82.445312 C 15.34375 82.488281 15.371094 82.535156 15.390625 82.585938 C 15.378906 82.613281 15.347656 82.628906 15.273438 82.625 C 15.046875 82.609375 15.003906 82.777344 14.9375 82.929688 C 14.75 82.957031 14.570312 82.976562 14.496094 83.199219 C 14.488281 83.226562 14.441406 83.242188 14.390625 83.253906 C 14.371094 83.253906 14.351562 83.253906 14.328125 83.246094 C 14.296875 83.253906 14.273438 83.269531 14.253906 83.296875 C 14.199219 83.421875 14.164062 83.554688 14.152344 83.695312 L 14.117188 83.777344 C 14.117188 83.800781 14.117188 83.820312 14.125 83.84375 C 14.0625 83.992188 14.039062 84.152344 14.054688 84.316406 C 13.988281 84.589844 13.945312 84.859375 14.019531 85.136719 C 13.988281 85.382812 14.023438 85.617188 14.117188 85.847656 C 14.332031 85.863281 14.546875 85.898438 14.675781 85.632812 C 14.738281 85.511719 14.886719 85.59375 14.980469 85.640625 C 15.117188 85.707031 15.25 85.761719 15.40625 85.734375 C 15.503906 85.433594 15.523438 85.117188 15.535156 84.800781 C 15.621094 84.292969 15.589844 83.777344 15.644531 83.25 C 15.710938 83.308594 15.761719 83.351562 15.8125 83.394531 C 16.222656 84.195312 16.703125 84.945312 17.394531 85.53125 C 17.429688 85.539062 17.457031 85.554688 17.46875 85.589844 C 17.480469 85.605469 17.488281 85.621094 17.5 85.636719 C 17.449219 85.722656 17.492188 85.785156 17.546875 85.859375 C 17.667969 86.035156 17.71875 86.261719 17.890625 86.402344 C 18.628906 87.5625 19.585938 88.515625 20.699219 89.316406 C 20.523438 89.664062 20.527344 90.039062 20.539062 90.410156 C 20.550781 90.941406 20.539062 91.472656 20.523438 92.003906 C 20.519531 92.109375 20.503906 92.214844 20.546875 92.316406 C 20.511719 92.734375 20.46875 93.15625 20.511719 93.578125 C 20.496094 93.679688 20.511719 93.726562 20.640625 93.699219 C 20.792969 93.667969 20.941406 93.527344 21.085938 93.808594 C 21.160156 93.949219 21.476562 94.058594 21.707031 93.863281 C 21.75 93.710938 21.8125 93.566406 21.789062 93.40625 C 21.871094 93.203125 21.863281 92.992188 21.867188 92.777344 C 21.898438 92.199219 21.890625 91.625 21.695312 91.066406 C 21.730469 90.835938 21.609375 90.652344 21.5 90.46875 L 21.453125 90.339844 L 21.40625 90.207031 C 21.355469 90.015625 21.191406 89.875 21.167969 89.664062 C 21.9375 90.167969 22.667969 90.738281 23.40625 91.289062 C 24.011719 91.746094 24.617188 92.203125 25.222656 92.660156 C 25.269531 92.839844 25.167969 93.003906 25.15625 93.171875 C 25.148438 93.296875 25.125 93.429688 25.148438 93.554688 C 25.097656 93.628906 25.125 93.703125 25.148438 93.777344 C 25.089844 93.878906 25.140625 93.96875 25.164062 94.0625 L 25.167969 94.066406 C 25.152344 94.667969 25.316406 95.242188 25.515625 95.800781 C 25.644531 96.234375 25.746094 96.679688 26.054688 97.035156 C 26.058594 97.054688 26.066406 97.074219 26.082031 97.089844 C 26.207031 97.320312 26.394531 97.488281 26.640625 97.570312 C 26.820312 97.632812 27.019531 97.6875 27.160156 97.480469 C 27.378906 97.136719 27.261719 96.789062 27.1875 96.4375 C 27.171875 96.394531 27.160156 96.347656 27.144531 96.304688 L 27.109375 96.171875 C 27.113281 96.152344 27.109375 96.132812 27.097656 96.117188 C 27.105469 95.820312 26.96875 95.554688 26.890625 95.28125 C 26.882812 95.257812 26.878906 95.238281 26.871094 95.214844 C 26.800781 94.914062 26.695312 94.628906 26.585938 94.347656 C 26.535156 94.066406 26.347656 93.84375 26.257812 93.578125 C 26.230469 93.542969 26.210938 93.496094 26.167969 93.46875 C 26.160156 93.46875 26.15625 93.464844 26.152344 93.460938 C 26.148438 93.441406 26.144531 93.421875 26.136719 93.40625 C 26.140625 93.410156 26.148438 93.414062 26.152344 93.417969 C 26.199219 93.453125 26.253906 93.464844 26.308594 93.46875 C 27.699219 94.433594 29.136719 95.335938 30.636719 96.125 C 30.667969 96.238281 30.585938 96.332031 30.582031 96.4375 C 30.398438 96.828125 30.410156 97.25 30.4375 97.664062 C 30.464844 98.113281 30.519531 98.5625 30.679688 98.988281 C 30.695312 99.03125 30.707031 99.074219 30.722656 99.117188 C 30.742188 99.21875 30.789062 99.300781 30.867188 99.371094 L 30.914062 99.5 C 30.921875 99.523438 30.929688 99.542969 30.9375 99.570312 C 30.964844 99.664062 30.972656 99.773438 31.082031 99.824219 C 31.171875 100.132812 31.363281 100.378906 31.566406 100.617188 C 32.132812 101.445312 32.890625 102.039062 33.800781 102.453125 C 34.015625 102.546875 34.085938 102.484375 34.078125 102.234375 C 34.066406 101.8125 33.988281 101.398438 33.882812 100.996094 C 33.679688 100.183594 33.378906 99.398438 32.96875 98.664062 C 32.957031 98.644531 32.933594 98.636719 32.914062 98.625 C 32.910156 98.628906 32.910156 98.632812 32.90625 98.632812 L 32.914062 98.625 C 32.710938 98.210938 32.472656 97.820312 32.167969 97.476562 C 32.148438 97.402344 32.09375 97.34375 32.035156 97.296875 C 31.9375 97.09375 31.761719 96.949219 31.636719 96.765625 C 31.613281 96.730469 31.589844 96.691406 31.566406 96.65625 C 31.605469 96.664062 31.648438 96.667969 31.691406 96.667969 C 33.265625 97.441406 34.882812 98.109375 36.539062 98.671875 C 36.796875 98.761719 37.054688 98.839844 37.308594 98.917969 C 37.332031 98.839844 37.363281 98.761719 37.402344 98.6875 C 37.421875 98.648438 37.445312 98.613281 37.472656 98.578125 C 36.375 98.222656 35.300781 97.8125 34.214844 97.421875 C 34.257812 97.378906 34.320312 97.371094 34.378906 97.367188 C 34.75 97.34375 35.089844 97.199219 35.4375 97.085938 C 35.460938 97.078125 35.480469 97.070312 35.503906 97.0625 C 36.308594 96.824219 36.925781 96.335938 37.40625 95.664062 C 37.496094 95.539062 37.566406 95.398438 37.613281 95.257812 C 37.65625 95.117188 37.703125 94.957031 37.523438 94.859375 C 37.332031 94.757812 37.132812 94.78125 36.945312 94.835938 C 36.511719 94.960938 36.066406 95.066406 35.675781 95.3125 C 35.140625 95.519531 34.621094 95.761719 34.148438 96.09375 C 34.128906 96.097656 34.109375 96.105469 34.09375 96.117188 C 33.816406 96.191406 33.605469 96.355469 33.390625 96.539062 C 33.261719 96.648438 33.265625 96.820312 33.183594 96.953125 L 33.160156 96.941406 C 31.40625 96.085938 29.664062 95.21875 28.019531 94.152344 C 26.855469 93.398438 25.738281 92.566406 24.628906 91.730469 C 24.582031 91.699219 24.539062 91.675781 24.496094 91.648438 C 24.519531 91.644531 24.539062 91.636719 24.554688 91.621094 C 24.574219 91.636719 24.59375 91.648438 24.617188 91.664062 C 24.75 91.691406 24.882812 91.722656 25.015625 91.75 C 25.113281 91.804688 25.214844 91.828125 25.320312 91.816406 C 25.394531 91.863281 25.472656 91.886719 25.5625 91.875 C 25.835938 91.945312 26.113281 92.007812 26.402344 91.980469 C 26.554688 92.039062 26.710938 92.054688 26.875 92.039062 C 27.226562 92.109375 27.582031 92.125 27.941406 92.105469 C 28.105469 92.097656 28.261719 92.046875 28.410156 91.984375 C 28.535156 91.933594 28.621094 91.84375 28.636719 91.703125 C 28.652344 91.550781 28.527344 91.488281 28.433594 91.449219 C 28.050781 91.289062 27.667969 91.113281 27.242188 91.097656 L 27.238281 91.101562 C 27.015625 90.984375 26.773438 90.96875 26.53125 90.972656 C 26.234375 90.921875 25.941406 90.90625 25.644531 90.96875 C 25.546875 90.953125 25.449219 90.941406 25.355469 90.984375 C 25.335938 90.980469 25.316406 90.984375 25.296875 90.992188 C 25 90.976562 24.742188 91.109375 24.464844 91.191406 C 24.316406 91.214844 24.179688 91.3125 24.023438 91.316406 C 23.996094 91.289062 23.96875 91.265625 23.945312 91.234375 C 23.160156 90.570312 22.328125 89.976562 21.488281 89.398438 C 20.34375 88.605469 19.3125 87.695312 18.472656 86.574219 C 18.464844 86.566406 18.457031 86.558594 18.449219 86.554688 C 18.476562 86.546875 18.503906 86.558594 18.539062 86.566406 C 18.734375 86.613281 18.914062 86.730469 19.121094 86.738281 C 19.242188 86.808594 19.386719 86.808594 19.519531 86.832031 C 19.566406 86.871094 19.617188 86.875 19.675781 86.855469 C 19.800781 86.929688 19.941406 86.921875 20.074219 86.941406 C 20.097656 86.945312 20.117188 86.941406 20.140625 86.933594 C 20.644531 87.054688 21.15625 87.097656 21.671875 87.09375 C 21.816406 87.136719 21.964844 87.136719 22.109375 87.101562 C 22.410156 87.15625 22.703125 87.15625 23 87.097656 C 23.433594 87.105469 23.863281 87.070312 24.285156 86.984375 C 24.40625 87.011719 24.523438 86.992188 24.640625 86.949219 C 24.898438 86.960938 25.160156 86.933594 25.40625 86.851562 C 25.53125 86.859375 25.644531 86.820312 25.742188 86.761719 C 25.917969 86.652344 25.847656 86.535156 25.71875 86.433594 C 25.675781 86.429688 25.632812 86.433594 25.605469 86.476562 C 25.601562 86.480469 25.601562 86.484375 25.597656 86.488281 L 25.597656 86.484375 L 25.589844 86.484375 C 25.597656 86.472656 25.609375 86.460938 25.613281 86.445312 C 25.445312 86.171875 25.253906 86.417969 25.078125 86.417969 C 25.074219 86.425781 25.070312 86.433594 25.066406 86.4375 L 25.066406 86.433594 C 25.074219 86.417969 25.085938 86.402344 25.089844 86.386719 C 25.109375 86.296875 25.074219 86.214844 25.023438 86.144531 C 25.011719 86.136719 25 86.125 24.988281 86.113281 C 25 86.035156 24.996094 85.957031 24.960938 85.878906 C 24.851562 85.898438 24.738281 85.917969 24.660156 85.800781 L 24.566406 85.777344 C 24.367188 85.710938 24.160156 85.675781 23.949219 85.683594 C 23.300781 85.589844 22.644531 85.488281 21.984375 85.507812 C 21.585938 85.414062 21.179688 85.464844 20.777344 85.464844 C 20.394531 85.46875 20.011719 85.445312 19.632812 85.527344 C 19.214844 85.5 18.808594 85.585938 18.402344 85.644531 C 18.265625 85.664062 18.152344 85.652344 18.03125 85.605469 L 18.03125 85.617188 C 18.027344 85.617188 18.027344 85.613281 18.023438 85.613281 C 18.015625 85.617188 18.011719 85.617188 18.003906 85.617188 L 18.023438 85.597656 C 18.011719 85.496094 17.941406 85.429688 17.867188 85.371094 C 16.984375 84.703125 16.476562 83.753906 15.96875 82.808594 C 15.316406 81.585938 14.746094 80.316406 14.074219 79.101562 C 13.996094 79 13.949219 78.878906 13.882812 78.769531 C 13.914062 78.789062 13.9375 78.84375 13.976562 78.824219 C 14.035156 78.910156 14.097656 78.996094 14.199219 79.035156 C 14.21875 79.027344 14.238281 79.023438 14.257812 79.015625 C 14.242188 79.03125 14.226562 79.039062 14.199219 79.035156 C 14.449219 79.296875 14.691406 79.558594 15.007812 79.738281 C 15.375 80.089844 15.777344 80.386719 16.246094 80.59375 C 16.238281 80.53125 16.175781 80.453125 16.25 80.402344 C 16.316406 80.355469 16.332031 80.460938 16.414062 80.464844 C 16.347656 80.222656 16.4375 80.023438 16.597656 79.855469 C 16.5 79.75 16.234375 79.757812 16.355469 79.484375 C 16.390625 79.402344 16.304688 79.414062 16.253906 79.394531 C 16.164062 79.359375 16.160156 79.351562 16.242188 79.230469 C 16.265625 79.195312 16.253906 79.175781 16.238281 79.140625 C 16.191406 79.0625 16.144531 78.980469 16.054688 78.933594 C 16.035156 78.984375 16.007812 79.078125 15.996094 79.074219 C 15.917969 79.0625 15.949219 78.996094 15.941406 78.945312 C 15.945312 78.933594 15.949219 78.925781 15.949219 78.914062 C 15.796875 78.707031 15.632812 78.503906 15.78125 78.222656 C 15.710938 78.203125 15.648438 78.171875 15.582031 78.164062 C 14.878906 78.085938 14.191406 77.882812 13.480469 77.832031 C 13.457031 77.832031 13.433594 77.824219 13.410156 77.816406 C 13.398438 77.789062 13.382812 77.765625 13.371094 77.738281 C 13.050781 77.085938 12.707031 76.445312 12.359375 75.808594 C 12.3125 75.734375 12.257812 75.660156 12.1875 75.59375 C 12.167969 75.582031 12.148438 75.570312 12.121094 75.566406 C 12.234375 75.222656 12.167969 74.886719 12.078125 74.546875 C 12.054688 74.523438 12.035156 74.503906 12.011719 74.488281 C 12.054688 74.371094 11.988281 74.261719 11.964844 74.15625 C 11.953125 73.855469 11.914062 73.550781 11.816406 73.261719 L 11.824219 73.253906 C 11.84375 73.222656 11.855469 73.191406 11.859375 73.15625 C 11.84375 72.914062 11.886719 72.652344 11.636719 72.488281 C 11.648438 72.476562 11.664062 72.457031 11.675781 72.433594 C 11.488281 71.359375 11.308594 70.277344 11.125 69.199219 C 10.96875 68.253906 10.828125 67.308594 10.628906 66.371094 C 10.660156 66.449219 10.671875 66.539062 10.757812 66.585938 L 10.851562 66.847656 C 11.167969 67.484375 11.417969 68.160156 11.824219 68.75 C 11.894531 68.851562 11.953125 68.972656 12.070312 69.03125 C 12.167969 69.019531 12.199219 69.113281 12.265625 69.152344 C 12.34375 69.195312 12.421875 69.273438 12.511719 69.203125 C 12.621094 69.117188 12.464844 69.046875 12.488281 68.941406 C 12.601562 69.089844 12.675781 69.242188 12.714844 69.414062 C 12.785156 69.472656 12.859375 69.441406 12.929688 69.414062 C 12.960938 69.351562 13 69.328125 13.0625 69.367188 C 13.199219 69.308594 13.304688 69.226562 13.324219 69.070312 C 13.296875 69.042969 13.261719 69.046875 13.226562 69.054688 C 13.164062 69.0625 13.210938 69 13.183594 68.984375 C 13.066406 68.871094 13.113281 68.542969 12.800781 68.710938 C 12.761719 68.730469 12.75 68.738281 12.761719 68.691406 C 12.839844 68.425781 12.542969 68.4375 12.46875 68.292969 C 12.453125 68.265625 12.433594 68.242188 12.410156 68.21875 C 12.300781 68.125 12.15625 68.128906 12.035156 68.109375 C 12 67.824219 12.484375 67.695312 12.210938 67.378906 C 12.238281 67.390625 12.261719 67.40625 12.28125 67.441406 C 12.410156 67.691406 12.5 67.613281 12.558594 67.398438 C 12.265625 66.996094 11.96875 66.597656 11.671875 66.195312 C 11.601562 66.042969 11.515625 65.902344 11.390625 65.785156 C 11.1875 65.445312 10.980469 65.109375 10.710938 64.8125 C 10.683594 64.746094 10.667969 64.671875 10.585938 64.644531 C 10.5 64.46875 10.351562 64.335938 10.242188 64.183594 C 10.222656 64.082031 10.207031 63.988281 10.1875 63.890625 C 9.9375 62.371094 9.621094 60.863281 9.277344 59.367188 C 9.222656 59.117188 9.160156 58.875 9.101562 58.625 C 8.988281 58.730469 8.878906 58.835938 8.769531 58.933594 C 8.792969 59.054688 8.816406 59.171875 8.832031 59.296875 C 8.753906 59.304688 8.667969 59.300781 8.589844 59.328125 C 8.054688 59.542969 7.511719 59.753906 7.046875 60.113281 C 6.777344 60.21875 6.589844 60.421875 6.382812 60.613281 C 6.316406 60.640625 6.242188 60.664062 6.21875 60.746094 C 6.039062 60.859375 5.882812 61.007812 5.765625 61.183594 C 5.710938 61.203125 5.667969 61.234375 5.652344 61.292969 C 5.34375 61.546875 5.113281 61.855469 4.914062 62.199219 C 4.898438 62.226562 4.878906 62.253906 4.863281 62.28125 C 4.761719 62.398438 4.652344 62.503906 4.621094 62.660156 C 4.609375 62.691406 4.59375 62.722656 4.574219 62.746094 C 4.480469 62.847656 4.425781 62.964844 4.390625 63.09375 C 4.34375 63.144531 4.308594 63.207031 4.304688 63.277344 C 4.289062 63.304688 4.277344 63.335938 4.261719 63.363281 C 4.203125 63.40625 4.175781 63.46875 4.179688 63.539062 C 4.144531 63.65625 4.066406 63.75 4.0625 63.875 C 3.878906 64.273438 3.839844 64.699219 3.816406 65.132812 C 3.75 65.382812 3.886719 65.628906 3.832031 65.875 Z M 11.929688 67.128906 C 11.933594 67.097656 11.976562 67.070312 12.007812 67.078125 C 12.15625 67.105469 12.074219 67.273438 12.152344 67.339844 C 12.0625 67.289062 11.917969 67.292969 11.929688 67.128906 Z M 15.710938 79.519531 L 15.757812 79.519531 C 15.761719 79.535156 15.765625 79.546875 15.769531 79.566406 C 15.75 79.546875 15.730469 79.535156 15.710938 79.519531 Z M 24.449219 86.191406 C 24.449219 86.183594 24.449219 86.179688 24.453125 86.171875 C 24.453125 86.175781 24.457031 86.179688 24.457031 86.1875 C 24.453125 86.1875 24.449219 86.191406 24.449219 86.191406 Z M 19.671875 86.84375 C 19.691406 86.832031 19.714844 86.820312 19.738281 86.8125 C 19.726562 86.828125 19.710938 86.839844 19.671875 86.84375 Z M 37.15625 95.707031 Z M 35.976562 95.796875 L 35.980469 95.796875 C 35.980469 95.792969 35.980469 95.792969 35.976562 95.796875 C 35.980469 95.792969 35.984375 95.796875 35.988281 95.796875 L 35.988281 95.800781 C 35.984375 95.796875 35.980469 95.796875 35.976562 95.796875 Z M 35.914062 95.816406 L 35.90625 95.816406 C 35.910156 95.8125 35.914062 95.8125 35.914062 95.808594 C 35.917969 95.8125 35.914062 95.8125 35.914062 95.816406 C 35.917969 95.816406 35.921875 95.8125 35.925781 95.8125 C 35.921875 95.816406 35.917969 95.820312 35.917969 95.824219 C 35.917969 95.820312 35.914062 95.816406 35.914062 95.816406 Z M 35.558594 96.347656 C 35.574219 96.347656 35.585938 96.347656 35.601562 96.34375 L 35.601562 96.347656 C 35.589844 96.347656 35.574219 96.351562 35.558594 96.347656 Z M 31.320312 98.703125 C 31.320312 98.703125 31.316406 98.703125 31.320312 98.703125 C 31.316406 98.703125 31.316406 98.699219 31.320312 98.703125 C 31.320312 98.699219 31.320312 98.699219 31.320312 98.703125 Z M 31.84375 98.792969 L 31.855469 98.804688 L 31.851562 98.804688 C 31.851562 98.800781 31.847656 98.796875 31.84375 98.792969 Z M 32.128906 99.839844 L 32.132812 99.835938 C 32.132812 99.839844 32.132812 99.84375 32.128906 99.847656 C 32.132812 99.847656 32.128906 99.84375 32.128906 99.839844 Z M 26.964844 97.289062 C 26.964844 97.269531 26.96875 97.25 26.976562 97.234375 C 26.976562 97.253906 26.972656 97.273438 26.964844 97.289062 C 26.96875 97.289062 26.964844 97.289062 26.964844 97.289062 Z M 26.988281 97.457031 C 26.964844 97.4375 26.984375 97.417969 26.988281 97.457031 Z M 26.5625 96.570312 C 26.566406 96.566406 26.566406 96.558594 26.570312 96.554688 C 26.570312 96.558594 26.574219 96.5625 26.574219 96.5625 C 26.570312 96.566406 26.566406 96.566406 26.5625 96.570312 Z M 21.664062 92.757812 Z M 18.289062 86.203125 C 18.296875 86.191406 18.304688 86.183594 18.3125 86.167969 L 18.320312 86.175781 C 18.3125 86.1875 18.300781 86.199219 18.289062 86.203125 Z M 14.144531 85.175781 Z M 15.003906 84.6875 C 15 84.695312 14.996094 84.703125 14.992188 84.714844 C 14.988281 84.699219 14.992188 84.6875 15.003906 84.6875 Z M 11.351562 75.238281 C 11.335938 75.246094 11.320312 75.257812 11.300781 75.265625 C 11.3125 75.25 11.328125 75.238281 11.351562 75.238281 Z M 7.601562 61.632812 C 7.605469 61.628906 7.609375 61.628906 7.613281 61.625 L 7.613281 61.628906 C 7.609375 61.628906 7.605469 61.632812 7.601562 61.632812 Z M 4.367188 64.375 C 4.371094 64.371094 4.371094 64.367188 4.375 64.363281 L 4.375 64.371094 C 4.375 64.371094 4.371094 64.371094 4.371094 64.375 C 4.371094 64.371094 4.371094 64.371094 4.367188 64.375 Z M 4.367188 64.375 " fill-opacity="1" fill-rule="nonzero"/><path fill="#ffffff" d="M 20.601562 94.578125 C 20.5625 94.515625 20.589844 94.460938 20.640625 94.425781 C 20.757812 94.335938 20.832031 94.203125 20.957031 94.113281 C 21.265625 93.898438 21.382812 93.914062 21.554688 94.242188 C 21.570312 94.273438 21.582031 94.304688 21.59375 94.339844 C 21.605469 94.394531 21.601562 94.441406 21.5625 94.484375 C 21.382812 94.488281 21.230469 94.417969 21.082031 94.335938 C 21.011719 94.300781 20.875 94.261719 20.9375 94.441406 C 20.949219 94.472656 20.949219 94.507812 20.945312 94.542969 C 20.9375 94.597656 20.929688 94.65625 20.851562 94.660156 C 20.753906 94.667969 20.664062 94.675781 20.601562 94.578125 Z M 20.601562 94.578125 " fill-opacity="1" fill-rule="nonzero"/><path fill="#ffffff" d="M 20.796875 94.976562 C 20.835938 95 20.859375 95.042969 20.84375 95.09375 C 20.734375 95.015625 20.683594 95.160156 20.59375 95.167969 C 20.464844 95.179688 20.417969 95.101562 20.390625 95 C 20.382812 94.960938 20.378906 94.917969 20.371094 94.878906 C 20.507812 94.910156 20.667969 94.890625 20.796875 94.976562 Z M 20.796875 94.976562 " fill-opacity="1" fill-rule="nonzero"/><path fill="#ffffff" d="M 11.519531 82.109375 C 11.695312 82.667969 12.292969 83.015625 12.804688 82.859375 C 13.347656 82.6875 13.703125 82.046875 13.539062 81.523438 C 13.359375 80.96875 12.742188 80.664062 12.152344 80.847656 C 11.628906 81.015625 11.351562 81.574219 11.519531 82.109375 Z M 11.796875 82.039062 C 11.671875 81.664062 11.867188 81.25 12.222656 81.136719 C 12.65625 80.996094 13.128906 81.203125 13.257812 81.597656 C 13.378906 81.960938 13.136719 82.40625 12.738281 82.539062 C 12.359375 82.667969 11.925781 82.441406 11.796875 82.039062 Z M 11.796875 82.039062 " fill-opacity="1" fill-rule="nonzero"/><path fill="#ffffff" d="M 6.992188 66.773438 C 7.121094 67.144531 7.609375 67.382812 8.03125 67.253906 C 8.382812 67.140625 8.554688 66.828125 8.449219 66.488281 C 8.328125 66.101562 7.824219 65.835938 7.429688 65.960938 C 7.3125 65.996094 7.148438 66.050781 7.152344 66.144531 C 7.164062 66.375 6.90625 66.515625 6.992188 66.773438 Z M 7.28125 66.65625 C 7.226562 66.472656 7.335938 66.292969 7.53125 66.238281 C 7.753906 66.175781 8.101562 66.355469 8.167969 66.5625 C 8.226562 66.730469 8.121094 66.914062 7.941406 66.976562 C 7.699219 67.0625 7.355469 66.894531 7.28125 66.65625 Z M 7.28125 66.65625 " fill-opacity="1" fill-rule="nonzero"/><path fill="#ffffff" d="M 9.371094 68.179688 C 9.273438 68.359375 9.269531 68.558594 9.339844 68.796875 C 9.359375 68.882812 9.425781 68.996094 9.519531 69.085938 C 9.679688 69.238281 9.867188 69.265625 10.03125 69.164062 C 10.160156 69.082031 10.242188 68.863281 10.175781 68.695312 C 10.09375 68.488281 9.996094 68.289062 9.847656 68.121094 C 9.6875 67.929688 9.492188 67.953125 9.371094 68.179688 Z M 9.828125 68.871094 C 9.824219 68.832031 9.871094 68.792969 9.894531 68.757812 C 10.015625 68.796875 10.03125 68.890625 10.027344 68.988281 C 10.027344 69.085938 9.96875 69.109375 9.902344 69.039062 C 9.863281 69 9.835938 68.929688 9.828125 68.871094 Z M 9.675781 68.316406 C 9.734375 68.222656 9.875 68.308594 9.886719 68.433594 C 9.902344 68.585938 9.785156 68.664062 9.691406 68.75 C 9.605469 68.824219 9.527344 68.824219 9.464844 68.710938 C 9.460938 68.582031 9.542969 68.527344 9.675781 68.316406 Z M 9.675781 68.316406 " fill-opacity="1" fill-rule="nonzero"/><path fill="#ffffff" d="M 31.085938 95.457031 C 30.589844 95.59375 30.125 95.199219 30.191406 94.691406 C 30.242188 94.296875 30.476562 94.015625 30.828125 93.875 C 31.050781 93.78125 31.308594 93.75 31.492188 94 C 31.433594 94.136719 31.339844 94.160156 31.183594 94.140625 C 30.847656 94.101562 30.570312 94.324219 30.503906 94.644531 C 30.46875 94.816406 30.496094 94.976562 30.632812 95.085938 C 30.78125 95.207031 30.953125 95.214844 31.121094 95.128906 C 31.417969 94.980469 31.546875 94.722656 31.476562 94.386719 C 31.4375 94.199219 31.492188 94.121094 31.667969 94.109375 C 31.964844 94.667969 31.691406 95.296875 31.085938 95.457031 Z M 31.085938 95.457031 " fill-opacity="1" fill-rule="nonzero"/><path fill="#ffffff" d="M 46.523438 63.980469 C 47.71875 65.144531 49.046875 66.289062 50.210938 67.585938 C 52.902344 70.582031 54.5 74.105469 54.996094 78.113281 C 55.011719 78.238281 55.007812 78.367188 55.027344 78.492188 C 55.089844 78.902344 54.910156 79.027344 54.515625 78.980469 C 51.535156 78.628906 48.644531 77.953125 45.933594 76.625 C 42.707031 75.042969 40.3125 72.609375 38.738281 69.414062 C 37.703125 67.304688 36.84375 65.113281 35.890625 62.960938 C 35.089844 61.15625 34.132812 59.460938 32.578125 58.171875 C 32.484375 58.097656 32.382812 57.898438 32.417969 57.828125 C 32.480469 57.71875 32.648438 57.613281 32.78125 57.601562 C 33.363281 57.550781 33.949219 57.519531 34.53125 57.507812 C 38.636719 57.414062 42.664062 57.882812 46.53125 59.34375 C 50.195312 60.730469 53.230469 62.917969 55.238281 66.367188 C 56.503906 68.546875 57.140625 70.929688 57.378906 73.425781 C 57.554688 75.195312 57.527344 76.960938 57.292969 78.722656 C 57.269531 78.894531 57.097656 79.046875 56.992188 79.210938 C 56.902344 79.046875 56.757812 78.890625 56.734375 78.722656 C 55.929688 72.683594 53.117188 67.921875 47.867188 64.707031 C 47.4375 64.441406 46.980469 64.222656 46.535156 63.984375 C 46.5 63.964844 46.453125 63.960938 46.523438 63.980469 Z M 57.054688 78.085938 C 57.066406 78.027344 57.085938 77.96875 57.085938 77.914062 C 57.054688 76.179688 57.105469 74.4375 56.964844 72.710938 C 56.804688 70.726562 56.203125 68.839844 55.273438 67.074219 C 53.34375 63.40625 50.257812 61.09375 46.460938 59.644531 C 42.203125 58.03125 37.777344 57.644531 33.269531 57.863281 C 33.125 57.875 32.980469 57.914062 32.75 57.949219 C 34.9375 59.808594 35.960938 62.269531 36.988281 64.742188 C 37.652344 66.332031 38.324219 67.917969 39.105469 69.449219 C 40.523438 72.234375 42.59375 74.425781 45.335938 75.957031 C 47.597656 77.21875 50.046875 77.929688 52.578125 78.390625 C 53.265625 78.515625 53.96875 78.589844 54.761719 78.703125 C 53.898438 71.242188 49.699219 66.230469 43.519531 62.511719 C 49.121094 64.039062 55.480469 68.789062 57.054688 78.085938 Z M 57.054688 78.085938 " fill-opacity="1" fill-rule="nonzero"/><path fill="#ffffff" d="M 70.203125 54.507812 C 67.511719 55.703125 65.292969 57.484375 63.542969 59.828125 C 61.453125 62.625 60.261719 65.777344 59.851562 69.242188 C 59.832031 69.40625 59.667969 69.546875 59.5625 69.699219 C 59.472656 69.574219 59.320312 69.457031 59.304688 69.320312 C 58.917969 66.164062 59.039062 63.042969 59.988281 59.988281 C 61.109375 56.402344 63.285156 53.628906 66.449219 51.621094 C 69.328125 49.796875 72.523438 48.859375 75.863281 48.363281 C 78.40625 47.984375 80.957031 47.894531 83.515625 48.066406 C 83.660156 48.074219 83.804688 48.070312 83.9375 48.109375 C 84.226562 48.195312 84.3125 48.414062 84.085938 48.601562 C 81.648438 50.601562 80.671875 53.472656 79.523438 56.242188 C 78.632812 58.390625 77.703125 60.511719 76.3125 62.402344 C 74.328125 65.097656 71.6875 66.882812 68.566406 68.007812 C 66.550781 68.738281 64.46875 69.179688 62.351562 69.453125 C 61.539062 69.558594 61.484375 69.5 61.582031 68.667969 C 62.09375 64.375 63.890625 60.683594 66.84375 57.558594 C 67.792969 56.554688 68.886719 55.683594 69.917969 54.746094 C 70.011719 54.660156 70.109375 54.585938 70.203125 54.507812 Z M 83.628906 48.414062 C 83.648438 48.429688 83.625 48.398438 83.597656 48.394531 C 83.484375 48.378906 83.378906 48.367188 83.269531 48.359375 C 80.847656 48.183594 78.441406 48.304688 76.042969 48.648438 C 72.875 49.101562 69.835938 49.960938 67.0625 51.605469 C 64.5 53.128906 62.496094 55.167969 61.167969 57.855469 C 60.304688 59.605469 59.820312 61.457031 59.578125 63.382812 C 59.359375 65.167969 59.359375 66.949219 59.5625 68.742188 C 60.140625 65.058594 61.519531 61.722656 63.910156 58.855469 C 66.101562 56.226562 71.296875 52.941406 72.914062 53.105469 C 66.84375 56.78125 62.675781 61.777344 61.832031 69.15625 C 62.015625 69.15625 62.109375 69.164062 62.199219 69.15625 C 64.433594 68.886719 66.617188 68.414062 68.730469 67.621094 C 72.402344 66.246094 75.316406 63.941406 77.179688 60.464844 C 78.109375 58.730469 78.832031 56.882812 79.667969 55.097656 C 80.304688 53.730469 80.902344 52.332031 81.65625 51.027344 C 82.1875 50.097656 82.949219 49.292969 83.628906 48.414062 Z M 83.628906 48.414062 " fill-opacity="1" fill-rule="nonzero"/><path fill="#ffffff" d="M 53.476562 44.355469 C 53.84375 45.308594 54.230469 46.199219 54.546875 47.117188 C 56.171875 51.84375 56.265625 56.558594 54.378906 61.246094 C 54.160156 61.78125 54.058594 61.816406 53.597656 61.492188 C 51.179688 59.789062 48.964844 57.875 47.21875 55.460938 C 45.089844 52.511719 44.105469 49.199219 44.226562 45.578125 C 44.289062 43.621094 44.496094 41.675781 44.652344 39.726562 C 44.808594 37.703125 44.945312 35.683594 44.347656 33.703125 C 44.28125 33.476562 44.179688 33.257812 44.128906 33.027344 C 44.082031 32.832031 44.089844 32.625 44.078125 32.417969 C 44.269531 32.441406 44.484375 32.421875 44.648438 32.5 C 45.710938 33.015625 46.792969 33.515625 47.820312 34.097656 C 50.894531 35.832031 53.6875 37.929688 56 40.628906 C 57.957031 42.910156 59.375 45.46875 59.957031 48.441406 C 60.601562 51.714844 60.132812 54.878906 58.800781 57.890625 C 58.089844 59.496094 57.136719 61.003906 56.289062 62.550781 C 56.257812 62.605469 56.230469 62.675781 56.183594 62.703125 C 56.046875 62.78125 55.898438 62.832031 55.757812 62.894531 C 55.734375 62.742188 55.640625 62.566406 55.691406 62.449219 C 56.335938 60.839844 56.753906 59.179688 56.960938 57.460938 C 57.457031 53.417969 56.703125 49.628906 54.664062 46.105469 C 54.34375 45.546875 53.964844 45.019531 53.609375 44.476562 C 53.589844 44.441406 53.550781 44.421875 53.476562 44.355469 Z M 56.269531 61.960938 C 57.988281 59.355469 59.289062 56.582031 59.757812 53.453125 C 60.054688 51.433594 59.941406 49.453125 59.414062 47.488281 C 58.601562 44.480469 56.933594 41.980469 54.800781 39.765625 C 52.578125 37.457031 49.992188 35.625 47.1875 34.097656 C 46.292969 33.609375 45.371094 33.171875 44.371094 32.664062 C 44.410156 32.867188 44.414062 32.960938 44.445312 33.046875 C 44.910156 34.273438 45.136719 35.546875 45.078125 36.851562 C 45 38.503906 44.847656 40.15625 44.75 41.804688 C 44.660156 43.300781 44.523438 44.796875 44.527344 46.289062 C 44.539062 49.128906 45.273438 51.789062 46.765625 54.214844 C 48.046875 56.300781 49.703125 58.046875 51.59375 59.578125 C 52.351562 60.191406 53.132812 60.769531 53.945312 61.390625 C 54.753906 59.65625 55.179688 57.914062 55.359375 56.121094 C 55.871094 50.945312 54.386719 46.261719 51.625 41.78125 C 55.476562 45.363281 59.46875 52.542969 56.269531 61.960938 Z M 56.269531 61.960938 " fill-opacity="1" fill-rule="nonzero"/><path fill="#ffffff" d="M 57.054688 78.085938 C 55.480469 68.792969 49.117188 64.039062 43.519531 62.519531 C 49.703125 66.234375 53.902344 71.246094 54.761719 78.710938 C 53.964844 78.597656 53.265625 78.523438 52.578125 78.398438 C 50.046875 77.9375 47.597656 77.226562 45.335938 75.964844 C 42.59375 74.433594 40.523438 72.238281 39.105469 69.457031 C 38.324219 67.921875 37.652344 66.339844 36.988281 64.75 C 35.960938 62.277344 34.9375 59.816406 32.75 57.957031 C 32.980469 57.917969 33.125 57.882812 33.269531 57.875 C 37.777344 57.648438 42.203125 58.035156 46.460938 59.65625 C 50.257812 61.097656 53.34375 63.414062 55.273438 67.082031 C 56.203125 68.847656 56.804688 70.738281 56.964844 72.71875 C 57.105469 74.445312 57.054688 76.1875 57.085938 77.921875 C 57.089844 77.96875 57.066406 78.027344 57.054688 78.085938 Z M 57.054688 78.085938 " fill-opacity="1" fill-rule="nonzero"/><path fill="#ffffff" d="M 83.628906 48.414062 C 82.949219 49.292969 82.191406 50.097656 81.65625 51.023438 C 80.902344 52.328125 80.304688 53.726562 79.667969 55.09375 C 78.832031 56.878906 78.109375 58.726562 77.179688 60.460938 C 75.316406 63.9375 72.398438 66.242188 68.730469 67.617188 C 66.617188 68.410156 64.433594 68.878906 62.199219 69.152344 C 62.109375 69.164062 62.019531 69.152344 61.832031 69.152344 C 62.671875 61.773438 66.84375 56.78125 72.914062 53.101562 C 71.296875 52.9375 66.105469 56.21875 63.910156 58.851562 C 61.519531 61.722656 60.136719 65.054688 59.5625 68.738281 C 59.359375 66.949219 59.359375 65.164062 59.578125 63.378906 C 59.820312 61.453125 60.308594 59.601562 61.167969 57.851562 C 62.492188 55.164062 64.5 53.125 67.0625 51.601562 C 69.835938 49.957031 72.875 49.09375 76.042969 48.644531 C 78.441406 48.300781 80.851562 48.179688 83.269531 48.355469 C 83.378906 48.363281 83.488281 48.375 83.597656 48.390625 C 83.625 48.398438 83.648438 48.429688 83.628906 48.414062 Z M 83.628906 48.414062 " fill-opacity="1" fill-rule="nonzero"/><path fill="#ffffff" d="M 56.269531 61.960938 C 59.46875 52.539062 55.476562 45.363281 51.628906 41.785156 C 54.390625 46.265625 55.875 50.949219 55.363281 56.125 C 55.183594 57.917969 54.757812 59.664062 53.949219 61.394531 C 53.136719 60.773438 52.355469 60.195312 51.597656 59.582031 C 49.707031 58.050781 48.050781 56.304688 46.769531 54.21875 C 45.277344 51.789062 44.542969 49.132812 44.53125 46.292969 C 44.523438 44.800781 44.664062 43.304688 44.753906 41.808594 C 44.855469 40.160156 45.003906 38.507812 45.082031 36.855469 C 45.140625 35.550781 44.914062 34.273438 44.449219 33.050781 C 44.417969 32.964844 44.414062 32.871094 44.375 32.667969 C 45.375 33.175781 46.296875 33.613281 47.191406 34.101562 C 49.996094 35.628906 52.578125 37.460938 54.804688 39.769531 C 56.9375 41.984375 58.605469 44.484375 59.417969 47.492188 C 59.945312 49.457031 60.058594 51.4375 59.761719 53.457031 C 59.289062 56.582031 57.988281 59.355469 56.269531 61.960938 Z M 56.269531 61.960938 " fill-opacity="1" fill-rule="nonzero"/></svg>