<svg preserveAspectRatio="xMidYMid meet" data-bbox="198.91 87.08 284.2 284.2" viewBox="198.91 87.08 284.2 284.2" xmlns="http://www.w3.org/2000/svg" data-type="color" role="presentation" aria-hidden="true" aria-label="">
    <g>
        <path d="m235.67 179.3 8.79 5.04 3.12-5.44 1.53.88-4.07 7.1-10.33-5.92.96-1.66z" fill="#027800" data-color="1"></path>
        <path d="m255.01 171.28-5.04 7.2-9.75-6.82 5.01-7.16 1.52 1.06-3.92 5.6 2.63 1.84 3.76-5.38 1.45 1.01-3.76 5.38 2.62 1.83 3.95-5.64 1.53 1.08z" fill="#027800" data-color="1"></path>
        <path d="m259.84 161.71-4.22 4.87 1.15 2.49-1.33 1.53-5.49-11.83 1.36-1.57 12.49 3.77-1.33 1.53-2.63-.79zm-7.7-2.42 2.63 5.61 3.3-3.8-5.93-1.81z" fill="#027800" data-color="1"></path>
        <path d="m264.85 160.04-8.14-8.65 6.13-5.76 1.27 1.35-4.74 4.46 2.48 2.64 4.51-4.24 1.21 1.29-4.51 4.24 3.18 3.38-1.39 1.29z" fill="#027800" data-color="1"></path>
        <path d="m271.81 145.12-.55-6.22 1.81-1.41.05.07.52 8.38 2.99 3.85-1.5 1.17-2.99-3.85-7.88-2.66-.05-.07 1.79-1.39 5.81 2.13z" fill="#027800" data-color="1"></path>
        <path d="M282.33 131.65c.84-.49 1.68-.79 2.52-.9s1.6-.04 2.29.21 1.31.6 1.87 1.06c.56.46 1.03 1.02 1.43 1.67.41.65.69 1.35.84 2.08.15.73.17 1.47.05 2.2-.12.74-.43 1.45-.94 2.15s-1.2 1.3-2.06 1.8l-3.89 2.27-6-10.28 3.89-2.26zm2.82 10.01 2.26-1.32c1.17-.69 1.85-1.56 2.03-2.63.18-1.07-.04-2.09-.64-3.08-.37-.6-.83-1.08-1.36-1.45-.53-.37-1.17-.57-1.91-.6-.74-.03-1.5.19-2.27.64l-2.26 1.32 4.15 7.12z" fill="#027800" data-color="1"></path>
        <path d="m303.29 134.41-8 3.64-4.93-10.83 7.95-3.62.77 1.69-6.22 2.83 1.33 2.92 5.97-2.72.73 1.61-5.97 2.72 1.32 2.91 6.26-2.85.79 1.7z" fill="#027800" data-color="1"></path>
        <path d="m303.23 121.77 3.35 9.56 5.92-2.07.58 1.67-7.72 2.7-3.93-11.23 1.8-.63z" fill="#027800" data-color="1"></path>
        <path d="m314.67 130.55-3.22-11.46 1.82-.51 3.22 11.46-1.82.51z" fill="#027800" data-color="1"></path>
        <path d="M325.88 118.53c-.48-.32-1.03-.53-1.65-.63-.62-.1-1.2-.1-1.76.02-1.32.27-2.28.91-2.89 1.94-.6 1.02-.77 2.17-.5 3.45.24 1.18.8 2.1 1.69 2.76.89.67 2.04.85 3.46.57 1.08-.22 1.96-.75 2.64-1.61l-.48-2.37-3.25.66-.34-1.67 4.98-1.01.97 4.78c-.96 1.6-2.35 2.59-4.17 2.96-1.03.21-1.99.23-2.86.07-.87-.17-1.6-.48-2.19-.94a5.942 5.942 0 0 1-1.46-1.66c-.38-.65-.66-1.37-.82-2.17-.36-1.77-.11-3.36.73-4.77.85-1.42 2.23-2.31 4.14-2.7 1.69-.34 3.25-.04 4.67.89l-.91 1.43z" fill="#027800" data-color="1"></path>
        <path d="m339.43 126.21-.44-4.93-6.27.56.44 4.93-1.9.17-1.07-11.86 1.9-.17.46 5.17 6.27-.56-.46-5.17 1.88-.17 1.06 11.86-1.87.17z" fill="#027800" data-color="1"></path>
        <path d="m346.8 115.84-3.91-.04.02-1.72 9.72.09-.02 1.72-3.89-.04-.1 10.18-1.92-.02.1-10.17z" fill="#027800" data-color="1"></path>
        <path d="M362.06 117.69c-.24-.43-.61-.79-1.11-1.08a4.61 4.61 0 0 0-1.68-.54c-.81-.08-1.49.01-2.03.28-.54.27-.84.68-.89 1.23-.05.52.15.92.62 1.21.47.29 1.16.54 2.08.77.69.17 1.27.35 1.76.54.48.18.95.43 1.41.75.46.31.79.71 1 1.19.21.48.28 1.04.22 1.67-.08.84-.4 1.52-.95 2.04-.55.51-1.18.85-1.91 1.01-.73.16-1.53.2-2.41.11-2.42-.24-4.03-1.31-4.82-3.2l1.51-.81c.64 1.37 1.8 2.15 3.49 2.32.52.05 1 .04 1.44-.03.44-.07.83-.24 1.17-.52.34-.28.54-.65.58-1.11.06-.6-.16-1.07-.67-1.41-.51-.34-1.23-.62-2.16-.84-.53-.12-.99-.25-1.37-.38-.38-.13-.78-.3-1.19-.51-.41-.21-.74-.45-.98-.71-.24-.26-.43-.59-.57-.99-.14-.4-.18-.84-.13-1.32.06-.59.25-1.09.56-1.51.32-.42.71-.74 1.19-.96.48-.21.98-.36 1.51-.44.53-.08 1.08-.09 1.64-.03 2.11.21 3.51 1.02 4.21 2.44l-1.52.83z" fill="#027800" data-color="1"></path>
        <path d="m351.22 337.05-3.79 5.8-.41.02-4.24-5.44.4 9.12-1.9.08-.53-11.88 2.21-.1 4.17 5.4 3.66-5.74 2.21-.1.53 11.89-1.9.08-.41-9.13z" fill="#027800" data-color="1"></path>
        <path d="m357.14 345.5-1.62-11.79 1.87-.26 1.62 11.79-1.87.26z" fill="#027800" data-color="1"></path>
        <path d="M371.96 341.15c-.91 1.41-2.24 2.3-3.99 2.68-1.02.22-1.96.25-2.83.09-.87-.16-1.61-.47-2.22-.93a6.016 6.016 0 0 1-1.52-1.66c-.4-.64-.69-1.36-.86-2.15-.17-.79-.21-1.56-.11-2.33.1-.77.33-1.5.69-2.18s.91-1.29 1.63-1.81 1.59-.88 2.59-1.1c1.66-.36 3.21-.08 4.63.84l-.99 1.46c-.98-.62-2.07-.8-3.27-.54-1.38.3-2.35.96-2.91 1.97s-.7 2.11-.44 3.28.85 2.09 1.75 2.76c.9.67 2.05.85 3.46.55.55-.12 1.08-.35 1.59-.69.5-.34.92-.75 1.23-1.24l1.57 1z" fill="#027800" data-color="1"></path>
        <path d="m384.67 338.58-2.11.71-4.74-2.74-2.38.8 1.31 3.9-1.8.61-3.81-11.29c.58-.2 1.46-.49 2.63-.88s2.05-.68 2.63-.88c1.25-.42 2.34-.39 3.29.1s1.59 1.24 1.93 2.25c.3.89.31 1.75.03 2.56-.28.82-.92 1.48-1.91 1.98l4.63 2.62.3.26zm-11.17-6.96 1.38 4.09 3.43-1.16c.71-.24 1.18-.61 1.42-1.12.23-.51.26-1.05.06-1.62-.19-.56-.53-.98-1.04-1.27-.5-.29-1.1-.32-1.8-.08l-3.45 1.16z" fill="#027800" data-color="1"></path>
        <path d="M391.78 323.96c1.47.64 2.58 1.73 3.32 3.28.35.74.57 1.49.65 2.26.08.77.03 1.52-.15 2.25-.19.73-.57 1.42-1.14 2.06-.57.64-1.31 1.18-2.21 1.61-.9.43-1.78.66-2.65.69-.86.03-1.64-.11-2.32-.43-.68-.31-1.29-.74-1.83-1.28s-.98-1.17-1.33-1.9c-.78-1.64-.91-3.23-.38-4.78.53-1.55 1.6-2.71 3.22-3.48 1.74-.82 3.35-.92 4.82-.28zm-5.04 9.05c.36.38.79.7 1.27.94s1.02.36 1.63.35c.61-.01 1.23-.16 1.86-.46 1.26-.6 2.02-1.43 2.3-2.48.28-1.05.15-2.14-.39-3.27-.33-.7-.76-1.28-1.3-1.75-.53-.47-1.19-.78-1.98-.91s-1.59-.01-2.43.38c-1.21.58-1.96 1.4-2.27 2.48-.31 1.08-.18 2.22.4 3.42.24.48.55.91.91 1.3z" fill="#027800" data-color="1"></path>
        <path d="M402.77 318.56c-.56-.13-1.15-.12-1.76 0-.61.13-1.16.34-1.63.65-1.14.72-1.8 1.67-2 2.84-.19 1.17.06 2.3.77 3.4.65 1.01 1.5 1.67 2.57 1.97 1.07.3 2.21.06 3.44-.72.93-.59 1.56-1.41 1.89-2.45l-1.3-2.04-2.8 1.78-.91-1.44 4.29-2.73 2.62 4.12c-.32 1.84-1.26 3.26-2.83 4.26-.89.57-1.77.93-2.64 1.09-.87.16-1.67.13-2.39-.09-.72-.22-1.37-.56-1.96-1.03a6.612 6.612 0 0 1-1.54-1.73c-.97-1.52-1.31-3.09-1.03-4.72s1.25-2.96 2.89-4.01c1.45-.93 3.01-1.21 4.68-.85l-.36 1.7z" fill="#027800" data-color="1"></path>
        <path d="m419.51 317.08-1.73 1.41-5.41-.9-1.95 1.59 2.6 3.19-1.48 1.2-7.53-9.24c.47-.39 1.19-.97 2.15-1.74.96-.78 1.68-1.36 2.15-1.74 1.02-.83 2.06-1.18 3.12-1.06 1.06.12 1.92.6 2.6 1.42.59.73.9 1.53.93 2.39s-.34 1.71-1.09 2.52l5.26.83.38.13zm-12.91-2.6 2.73 3.35 2.81-2.29c.58-.47.89-.99.93-1.55.04-.56-.13-1.07-.51-1.54-.37-.46-.84-.73-1.42-.83-.57-.1-1.15.09-1.72.56l-2.82 2.3z" fill="#027800" data-color="1"></path>
        <path d="m427.69 308.89-6.17 6.26-8.47-8.36 6.14-6.22 1.32 1.3-4.8 4.87L418 309l4.61-4.67 1.26 1.24-4.61 4.67 2.28 2.24 4.83-4.9 1.32 1.31z" fill="#027800" data-color="1"></path>
        <path d="m435.27 299.62-5.49 6.87-9.3-7.43 5.46-6.83 1.45 1.16-4.27 5.34 2.51 2.01 4.1-5.13 1.38 1.1-4.1 5.13 2.5 2 4.3-5.38 1.46 1.16z" fill="#027800" data-color="1"></path>
        <path d="m438.62 288.28-7.15-4.53 1.02-1.61 10.05 6.36-.77 1.22-10.7 1.21 7.09 4.49-1.03 1.62-10.05-6.37.78-1.23 10.76-1.16z" fill="#027800" data-color="1"></path>
        <path d="M439.13 274.7c-.49.08-.96.3-1.39.67-.44.37-.8.84-1.08 1.39-.36.74-.5 1.4-.43 2s.35 1.02.85 1.26c.47.23.92.17 1.35-.17.43-.34.91-.9 1.44-1.69.4-.59.77-1.08 1.11-1.46.34-.39.74-.75 1.19-1.07.45-.32.94-.5 1.46-.53.52-.03 1.07.09 1.64.37.76.37 1.29.9 1.59 1.59.29.69.39 1.41.29 2.14-.1.74-.34 1.5-.73 2.3-1.06 2.19-2.62 3.33-4.67 3.42l-.23-1.7c1.51-.12 2.63-.95 3.38-2.48.23-.47.38-.92.47-1.36.09-.44.06-.86-.09-1.28-.15-.42-.43-.73-.84-.93-.54-.26-1.06-.22-1.55.14-.5.36-1.01.94-1.53 1.74-.3.46-.57.84-.83 1.16-.25.31-.55.62-.89.94-.34.31-.68.54-1.01.67-.33.14-.71.2-1.12.19-.42-.01-.85-.12-1.29-.33-.53-.26-.94-.61-1.23-1.05s-.45-.92-.49-1.45 0-1.04.11-1.57.29-1.04.54-1.55c.92-1.91 2.17-2.94 3.74-3.11l.24 1.75z" fill="#027800" data-color="1"></path>
        <path d="M341.01 371.28c-78.35 0-142.1-63.75-142.1-142.1 0-78.36 63.75-142.1 142.1-142.1 78.36 0 142.1 63.75 142.1 142.1 0 78.36-63.74 142.1-142.1 142.1zm0-282.2c-77.25 0-140.1 62.85-140.1 140.1s62.85 140.1 140.1 140.1 140.1-62.85 140.1-140.1-62.85-140.1-140.1-140.1z" fill="#027800" data-color="1"></path>
        <path d="M218.12 231.25c-.55 0-1-.45-1-1 0-68.45 55.69-124.15 124.15-124.15 13.62 0 27 2.19 39.78 6.51.52.18.8.74.63 1.27s-.74.81-1.27.63c-12.57-4.25-25.74-6.41-39.14-6.41-67.35 0-122.15 54.79-122.15 122.15 0 .56-.45 1-1 1z" fill="#027800" data-color="1"></path>
        <path d="M341.26 354.4c-13.55 0-26.88-2.17-39.61-6.45-.52-.18-.81-.74-.63-1.27.18-.52.74-.8 1.27-.63 12.52 4.21 25.63 6.35 38.97 6.35 67.35 0 122.15-54.79 122.15-122.15 0-.55.45-1 1-1s1 .45 1 1c0 68.46-55.69 124.15-124.15 124.15z" fill="#027800" data-color="1"></path>
        <path d="M341.96 191.63c.45 0 .45-.7 0-.7s-.45.7 0 .7z" fill="#027800" data-color="1"></path>
        <path d="M407.85 109.82c-1.06-.28-2.12-.52-3.23-.38-.3-.09-.6.02-.9.03a.563.563 0 0 0-.49.05c-.08.01-.16.02-.25.04-.18-.05-.35-.01-.51.06-.34-.02-.67.03-.98.18-.08.03-.16.04-.24.04-.41-.06-.75.13-1.1.28l-.24.06c-.98.2-1.91.53-2.76 1.07-.16-.01-.26.07-.35.19-.52.15-.99.4-1.41.75-.22 0-.33.15-.45.29-.61.35-1.26.65-1.72 1.21-1.23.84-2.16 1.99-3.1 3.12-.13.15-.18.37-.26.55-.28-.14-.56-.29-.83-.44-.33.19-.66.38-1 .56.55.33 1.1.67 1.65 1 3.36 2 6.74 3.95 10.22 5.73l.66.36c.29.39.49.85.85 1.19 0 .22.17.31.31.43.5.88 1.15 1.65 1.82 2.4.18.4.46.72.77 1.01.74 1.03 1.47 2.06 2.21 3.08.57.02.82-.14.33-.65a.342.342 0 0 1-.1-.22c.55.91 1.25-.16 1.9.15-.05.31-.17.65-.03.99.04.07.08.14.14.2.3.3.04 1 .74 1.01.12 0 .1.03.01.11-.66.61.18.77.36 1.13.02.07.2.01.14.16-.05.08-.09.15-.04.25.4.08.68-.11.93-.39-.05-.18.05-.26.21-.29.13-.15.26-.3.17-.52-.38-.23-.69-.52-.96-.91.27.02.32.46.61.26.24-.16.12-.41.07-.64-.04-.19-.25-.34-.14-.56-.05-.34-.29-.57-.48-.82-1.11-1.44-2.55-2.57-3.84-3.83l-.55-.43c-.04-.25-.26-.35-.42-.48 2.11 1.21 4.29 2.29 6.45 3.41 2.46 1.28 4.93 2.56 7.38 3.85.07-.01.12-.03.16-.05.2.73.86.83 1.43 1.05.09.02.18.01.27-.01.01 0 .01-.01.02-.01.62.47 1.32.8 2.05 1.06.24.15.45.39.77.38.02.06.06.13.1.2.74.48 1.51.9 2.43.9-.01.06-.01.12.01.18.1.21.23.4.38.57 1.27 1.34 2.54 2.68 3.87 3.95l.16.16c0 .06 0 .13-.02.19-.44 1.75-.48 3.56-.84 5.33-.03.17-.01.35-.01.52.79-.14 1.16.42 1.53.95.03.01.05.01.08.01.12.06.3.04.27.23-.01.03-.25.02-.39.03.04.25.21.42.36.6.05.06.09.1.2.08.36-.1.38-.09.4.16.01.14-.08.34.14.32.75-.08.52.56.7.88.53-.26 1.08-.33 1.62.03.05-.2-.19-.33-.03-.45.18-.14.31.07.46.14-.13-1.29-.54-2.49-1.1-3.65-.18-.91-.63-1.7-1.06-2.5-.01.07-.05.11-.09.13.03-.04.06-.09.09-.13-.01-.28-.17-.5-.33-.71.08-.07-.04-.17-.06-.26.22.24.48.44.67.72 2.41 2.57 5.03 4.93 7.47 7.47 1.89 1.96 3.79 3.93 4.71 6.59.08.22.19.44.42.55l.06-.03c-.01.01-.01.03-.02.04v.02c-.01 0-.02 0-.03-.01.02.33-.04.61-.19.92-.46.94-.99 1.86-1.25 2.88-.49.85-.74 1.79-1.04 2.71-.31.97-.75 1.91-.84 2.94-.56 1.58-.83 3.24-1.1 4.89-.18.51-.26 1.03-.25 1.57 0 .08-.01.16-.01.24.21.28.08.53-.05.79.16.15.35.21.55.25.02.04.03.07.04.11.13.18.29.32.53.34.05 0 .09-.01.14-.02h.01c-.02 0-.04.01-.06.01-.14.43-.88.7-.35 1.32.04 0 .07-.01.11-.03v.02h.01c-.01 0-.02 0-.03.01-.13.04-.17.14-.19.24.14.39.37.65.77.31.21-.18.4-.44.48-.73.39-.54.66-1.14.84-1.78.19-.24.33-.51.36-.83.54-.96.96-1.96 1.28-3.02.37-.67.59-1.4.7-2.15.2-.33.32-.68.33-1.07.41-1.24.71-2.51.8-3.82.03-.05.05-.1.07-.16.06-.34.19-.67.11-1.03.08-.12.13-.25.06-.4.05-.34.16-.68.08-1.03.15-.51 0-1.03.05-1.54.01-.09.01-.17.05-.23.01.02.02.05.03.07 2.05 2.9 3.44 6.11 4.45 9.5.75 2.49 1.53 4.96 2.52 7.37.05.08.09.17.14.25-.13.37-.47.62-.65.97-.4.6-.94 1.12-1.13 1.85-.04.04-.06.08-.06.14-.17.19-.22.44-.26.68-.38.67-.58 1.39-.69 2.14-.2.59-.35 1.19-.24 1.82h-.01c-.3 1.04-.17 2.1-.09 3.15.02.26.08.6.45.69.36.08.64-.05.86-.32.26-.32.5-.65.66-1.04.33-.85.57-1.72.67-2.63.17-.38.25-.77.24-1.19.29-.67.36-1.39.4-2.11.1-.2.11-.41.05-.63.11-.25.14-.52.08-.79.03-.35.07-.69.1-1.04l-.06-.18c.05-.03.09-.07.11-.12.03.13.06.25.1.38 1.15 3.33 2.28 6.67 3.2 10.08 1.29 4.79 2.02 9.68 2.72 14.58 0 .02.01.04.01.06-.38.09-.79-.05-1.16.18-.6.37-1.17.76-1.56 1.37-.04.03-.08.07-.1.12-1.17.89-2.15 1.95-3.07 3.08-.89.75-1.5 1.74-2.14 2.69-.28.41-.5.87-.39 1.41.09.51.52.53.89.53.38 0 .77-.06 1.14-.18 2-.63 3.66-1.75 4.86-3.5.04-.05.07-.1.11-.14.55-.75 1.17-1.45 1.51-2.34.05-.13.12-.28.26-.35.1 2.92.26 5.84.26 8.77.1-.03.2-.05.31-.08.21-.04.43-.06.64-.05.01-.68.02-1.36.01-2.05-.07-4.45-.42-8.87-1.06-13.27.03-.1.05-.21.07-.31.07.09.14.17.21.25.35.44.56.98.98 1.38.06.19.16.35.33.46.59 1.02 1.36 1.9 2.2 2.71l.03-.01c-.01 0-.02.01-.03.01.02.06.02.13.06.16 1.45 1.57 3.11 2.89 4.91 4.03.89.56 1.83 1.07 2.83 1.43.6.21.81.09.75-.5-.29-2.51-1.14-4.81-2.69-6.83-.41-.68-.87-1.33-1.54-1.79-.03-.31-.29-.41-.5-.55l-.14-.11-.28-.22c-.11-.23-.27-.41-.5-.54-.09-.07-.19-.14-.28-.21-.9-.72-1.95-1.2-3.01-1.62-.98-.39-1.98-.75-3.07-.6-.26-.07-.55.05-.8-.11-.73-4.24-1.78-8.41-3.03-12.52.03-.14.05-.28 0-.42-.01-.02-.01-.03-.02-.05.04.03.08.05.12.08v.05c.04.12.13.2.19.3.56.43.96 1.05 1.6 1.39.6.49 1.2.97 1.87 1.37.05.03.1.07.15.1.6.4 1.13.94 1.85 1.15.03.04.07.06.12.07.1.07.2.13.3.2.1.07.19.14.29.21.78.45 1.54 1 2.53.75.61-.18.64-.7.63-1.19-.01-.66-.27-1.24-.72-1.72a.573.573 0 0 0-.11-.11c-.62-1.02-1.61-1.62-2.56-2.27-1.2-.91-2.45-1.76-3.92-2.19l-.01-.01c-.21-.13-.39-.33-.67-.26-.16-.12-.33-.23-.55-.17-.29-.15-.61-.2-.93-.28-.43-.1-.89.02-1.29-.24l-1.89-5.46c-.76-2.21-1.57-4.41-2.18-6.67.48.22.69.73 1.12 1.01.09.07.19.14.28.21l.28.22c.36.41.71.84 1.3.94 1.19.91 2.57 1.37 3.99 1.75.52.15 1.02.34 1.58.3.37.19.77.15 1.17.16.65-.4.64-1.26.36-1.54-.56-.56-.1-.82.09-1.16.16-.29.06-.36-.2-.4-.98-.44-2.03-.66-3.07-.9-.21-.18-.48-.23-.73-.3-1.3-.38-2.59-.77-3.87-1.21-.88-.31-1.79-.61-2.76-.47-1.08-3.3-2.62-6.36-4.85-9.05-.21-.54-.71-.83-1.04-1.26-.13-.17-.25-.33-.5-.27-.03-.04-.06-.08-.09-.11-.08-.06-.1-.14-.09-.23-.88-2.14-2.31-3.88-3.92-5.5-.07-.15-.13-.31-.22-.51 1.32.29 2.54.76 3.83.95.77.22 1.55.42 2.36.42.19-.35.16-.72.11-1.1-.04-.26-.12-.69.22-.74.73-.11.81-.64.95-1.18-.48-.41-1.01-.68-1.63-.79-.61-.39-1.3-.51-2-.56-.38-.16-.78-.23-1.19-.19-.05-.03-.1-.05-.15-.07-.08 0-.15.01-.23.02-.34-.09-.69-.09-1.04-.07-.08.02-.14.07-.18.14 0 .06-.02.11-.03.16-.07.11-.14.21-.22.21-.59.01-.79.43-1 .85-.42.04-.85.02-.99.58-.04.17-.11.24-.18.24-.1-.09-.2-.19-.28-.31-.22-.48-.77-.6-1.08-.98-1.89-1.7-3.61-3.57-5.4-5.37l-5.79-5.85c-.06-.19-.32-.23-.36-.44.24-.09.46.03.69.06 1.65.26 3.3.52 4.97.08.47.16.92.02 1.36-.14 1.02-.35 1.27-1.04.55-1.76-.71-.71-1.52-1.29-2.49-1.61a9.227 9.227 0 0 0-3.38-1.15c-.89-.39-1.84-.52-2.78-.68-.85-.26-1.71-.39-2.6-.35-.64-.18-1.28-.1-1.92-.04-.56-.07-1.11-.02-1.67.07-.61.09-1.22.23-1.84.21-1.2-.64-2.4-1.28-3.6-1.91-2.4-1.26-4.82-2.51-7.22-3.78-2.14-1.13-4.27-2.28-6.41-3.42-1.87-1.01-3.74-2.02-5.6-3.05-1.55-.86-3.08-1.75-4.62-2.62.68-.21 1.4.05 2.08-.21.55-.05 1.11.07 1.64-.14.17.04.34.01.49-.07.43.01.85-.06 1.25-.2.08-.01.16-.03.24-.04.9-.01 1.73-.36 2.58-.58.58-.13 1.17-.26 1.72-.52.71-.14 1.36-.44 2.01-.73 1.25-.48 2.44-1.06 3.56-1.79.58-.18 1.04-.56 1.52-.9.22-.01.33-.17.45-.32.72-.38 1.42-.81 1.93-1.47l-1.3-.94c-.85-.05-1.33-.57-1.98-.59zm-1.19 21.84c-.11-.25-.57-.18-.52-.56.01-.08.11-.17.19-.15.4.1.27.44.33.71zm26.7 18.26c-.04-.03-.07-.05-.1-.07.01-.03.03-.07.03-.1.02.06.04.11.07.17zm9.2 26.15c-.02-.01-.02-.02-.03-.02.02 0 .03.01.05.01-.01 0-.02 0-.02.01zm5.31-11.03c-.04.09-.08.12-.13.13l.13-.13zm7.75 49.13zm1.14-2.74h-.01v-.03.01s0-.01.01-.01c-.01 0-.01.01 0 .03zm.11-.17c-.01 0-.02.01-.03.01l.02-.02h-.02l.02-.02v.02c0 .01 0 .01.01.01zm1.51-.34c.01-.04.02-.07.03-.1 0 .03-.01.07-.03.1zm9.02-8.52s.01 0 0 0c.01.01.01.01 0 0 0 .01 0 .01 0 0zm-.16 1.38v.01c-.01-.01-.01-.02-.02-.04.01.01.01.02.02.03zm2.3 1.5h-.03s0-.01.01-.01h.01s.01 0 .01.01zm-2.13-14.47a.59.59 0 0 1-.14-.02.18.18 0 0 1 .14.02c-.01-.01-.01-.01 0 0zm.37.18c-.08-.05-.02-.08 0 0zm-1.83-1.7c-.01 0-.01-.01-.02-.01.02 0 .03 0 .05-.01-.01 0-.02.01-.03.02zm-5.35-14.84c0 .01 0 .01 0 0 0 .01 0 .01 0 0 0 .01 0 .01 0 0zm-13.28-13.2c-.01-.01-.01-.02-.02-.02l.1-.03c-.02.02-.04.04-.08.05zm.84-10.87zm-1.77 1.68c-.02 0-.05.01-.07.01 0-.02.03-.02.07-.01zm-19.93-16.27c-.04.03-.07.06-.11.09.02-.06.06-.09.11-.09zm-30.05-19.55c0-.01 0-.01 0 0 0-.01.01-.02.02-.03 0 .01-.01.02-.02.03zm9.16-5.69h-.02c.01 0 .02-.01.03-.01 0 0-.01 0-.01.01z" fill="#027800" data-color="1"></path>
        <path d="M465.83 173.32c-.12-.15-.28-.12-.39-.04-.31.21-.68.29-1 .52-.77.58-.82.87-.16 1.54.06.06.14.11.2.17.12.07.24.1.38.04.15-.43.1-.85.01-1.28-.04-.19-.02-.55.37-.26.07.05.15.08.24.1.14.03.29.05.36-.13.09-.23.17-.44-.01-.66z" fill="#027800" data-color="1"></path>
        <path d="M466.63 174.1c.03.11.11.2.25.21-.1-.33.28-.34.37-.55.13-.3-.02-.48-.24-.63-.09-.05-.19-.09-.28-.14-.03.37-.2.73-.1 1.11z" fill="#027800" data-color="1"></path>
        <path d="M439.28 142.2c-.91 1.27-.66 3.01.54 3.87 1.13.81 2.96.46 3.8-.73.78-1.11.41-2.83-.8-3.69-1.17-.82-2.74-.58-3.54.55zm3.62 2.73c-.64.85-1.9 1.1-2.68.52-.85-.63-.99-1.93-.3-2.87.56-.76 1.7-.91 2.51-.32.86.63 1.08 1.86.47 2.67z" fill="#027800" data-color="1"></path>
        <path d="M407.67 118.65c-.22-.08-.49.27-.67.52-.6.85-.36 2.28.48 2.87.73.52 1.63.35 2.17-.42.65-.91.46-2.28-.35-2.88-.53-.4-1.07.11-1.63-.09zm1.4 2.55c-.29.39-.81.49-1.18.22-.45-.33-.61-1.3-.29-1.79.29-.44.8-.55 1.2-.27.53.36.67 1.32.27 1.84z" fill="#027800" data-color="1"></path>
        <path d="M410.34 126.7c.29.48.71.88 1.13 1.24.35.3.94.27 1.24.02.38-.32.46-.79.21-1.29-.15-.3-.36-.54-.55-.66-.52-.36-1-.51-1.52-.41-.63.11-.84.56-.51 1.1zm2.18.85c.12.22.02.33-.22.26-.23-.07-.45-.18-.45-.5.1-.02.24-.11.32-.07.14.06.28.18.35.31zm-.44-1.31c.23.24.17.42-.08.57-.28.17-.57.38-.92.23-.3-.13-.4-.53-.12-.61.6-.16.8-.31 1.12-.19z" fill="#027800" data-color="1"></path>
        <path d="M459.76 199.32c.71-1.09.12-2.52-1.15-2.76-.99-.18-1.84.16-2.47.9-.39.47-.67 1.07-.22 1.7.38-.04.51-.25.58-.63.17-.85.92-1.34 1.76-1.25.44.05.8.23.96.66.17.45.05.87-.29 1.22-.58.6-1.31.71-2.06.27-.41-.24-.65-.17-.82.25 1.13 1.14 2.84.97 3.71-.36z" fill="#027800" data-color="1"></path>
        <path d="M208.63 254.23c.16.51.33 1.02.49 1.52.79-.28 1.41-.81 1.99-1.38.18-.07.37-.12.45-.33.47-.36.97-.68 1.33-1.17 1.04-.84 1.96-1.8 2.8-2.84.47-.54.96-1.06 1.31-1.69.42-.43.72-.95 1.03-1.47.47-.75 1.06-1.42 1.34-2.28.04-.07.07-.14.11-.21.26-.34.45-.72.58-1.13.13-.12.21-.27.22-.45.36-.44.42-1.02.63-1.52.45-.56.42-1.33.83-1.91.36 1.73.73 3.47 1.07 5.2.41 2.09.8 4.18 1.18 6.27.44 2.38.87 4.76 1.29 7.15.47 2.68.92 5.36 1.38 8.03.23 1.34.47 2.68.71 4.01-.18.6-.49 1.13-.77 1.69-.25.5-.47 1.01-.58 1.57-.25.59-.52 1.18-.55 1.84-.31.83-.46 1.7-.47 2.59-.14.95-.31 1.89-.21 2.86-.21 1.19-.2 2.38.05 3.57.01 1.02.31 1.98.77 2.87.46.91 1.19.88 1.84.02.29-.37.55-.75.55-1.25.93-1.45 1.19-3.1 1.45-4.75.04-.23 0-.47.15-.67.19.1.15.36.31.48 1.26 2.44 2.53 4.87 3.79 7.31 1.16 2.25 2.41 4.47 3.45 6.79.27.41.21.97.6 1.33.09.11.16.23.21.36-.03.07-.11.11-.29.1-.58-.04-.69.38-.86.77-.47.07-.93.12-1.12.68-.02.07-.14.11-.26.14-.05 0-.1 0-.16-.02-.08.02-.14.06-.19.13-.14.32-.23.66-.26 1.01l-.09.21c0 .06 0 .11.02.17-.16.38-.22.78-.18 1.2-.17.69-.27 1.38-.09 2.08-.08.62.01 1.22.25 1.8.55.04 1.09.13 1.42-.54.16-.31.53-.1.77.02.35.17.69.31 1.08.24.25-.77.3-1.57.33-2.37.22-1.29.14-2.6.28-3.94.17.15.29.26.42.37 1.04 2.03 2.26 3.93 4.02 5.42.09.02.16.06.19.15.03.04.05.08.08.12-.13.22-.02.38.11.56.31.45.44 1.02.88 1.38 1.87 2.95 4.3 5.36 7.12 7.4-.44.88-.43 1.83-.4 2.77.03 1.35 0 2.7-.04 4.05-.01.26-.05.53.06.79-.09 1.06-.2 2.13-.09 3.2-.04.26 0 .38.32.31.39-.08.77-.44 1.13.27.19.36 1 .64 1.58.14.11-.38.27-.75.21-1.16.21-.51.19-1.05.2-1.59.08-1.47.06-2.93-.44-4.34.09-.59-.22-1.05-.49-1.52l-.12-.33-.12-.33c-.13-.49-.55-.85-.61-1.38 1.96 1.28 3.81 2.72 5.68 4.12 1.54 1.16 3.07 2.32 4.61 3.48.12.46-.14.87-.17 1.3-.02.32-.08.65-.02.97-.13.19-.06.38 0 .57-.15.25-.02.48.04.72l.01.01c-.04 1.53.38 2.98.88 4.4.33 1.1.59 2.23 1.37 3.13.01.05.03.1.07.14.32.59.79 1.01 1.42 1.22.46.16.96.3 1.32-.23.55-.87.26-1.75.07-2.64-.04-.11-.07-.23-.11-.34l-.09-.34c.01-.05 0-.1-.03-.14.02-.75-.33-1.42-.53-2.12-.02-.06-.03-.11-.05-.17-.17-.76-.44-1.48-.72-2.2-.13-.71-.6-1.28-.83-1.95-.07-.09-.12-.21-.23-.28-.02 0-.03-.01-.04-.02a.737.737 0 0 0-.04-.14c.01.01.03.02.04.03.12.09.26.12.4.13 3.53 2.45 7.17 4.74 10.98 6.74.08.29-.13.53-.14.8-.47.99-.44 2.06-.37 3.11.07 1.14.21 2.28.62 3.36.04.11.07.22.11.33.05.25.17.46.36.64l.12.33c.02.06.04.11.06.17.07.24.09.52.37.65.23.78.71 1.41 1.23 2.01 1.44 2.1 3.36 3.61 5.67 4.66.54.24.72.08.7-.56-.03-1.07-.23-2.12-.49-3.14-.52-2.06-1.28-4.05-2.32-5.91-.03-.05-.09-.07-.14-.1-.01.01-.01.02-.02.02l.02-.02c-.52-1.05-1.12-2.05-1.9-2.92-.05-.19-.18-.33-.33-.45-.25-.52-.7-.89-1.01-1.35-.06-.09-.12-.19-.18-.28.1.02.21.03.32.03 3.99 1.96 8.09 3.66 12.3 5.09.65.22 1.3.42 1.95.62.06-.2.14-.4.24-.59.05-.09.11-.18.17-.27-2.78-.9-5.51-1.95-8.26-2.94.11-.11.27-.13.41-.14.95-.05 1.81-.42 2.69-.71.06-.02.11-.04.17-.06 2.04-.6 3.61-1.84 4.83-3.55.22-.31.4-.67.52-1.03.11-.35.23-.76-.23-1.01-.48-.26-.99-.2-1.46-.06-1.1.32-2.23.59-3.22 1.21-1.36.53-2.68 1.14-3.88 1.98a.35.35 0 0 0-.14.06c-.7.19-1.24.61-1.78 1.07-.33.28-.32.72-.53 1.05l-.06-.03c-4.45-2.17-8.87-4.37-13.04-7.07-2.96-1.92-5.79-4.03-8.61-6.15-.11-.08-.22-.14-.33-.21.06-.01.11-.03.15-.07.05.04.1.07.15.11.34.07.68.15 1.02.22.24.14.5.2.77.17.19.12.39.18.61.15.7.18 1.4.34 2.13.27.39.14.79.18 1.2.14.9.18 1.8.22 2.71.17.42-.02.81-.15 1.19-.3.32-.13.53-.36.57-.72.04-.38-.27-.54-.51-.64-.97-.41-1.94-.85-3.02-.89l-.01.01c-.57-.3-1.18-.34-1.8-.33-.75-.13-1.5-.17-2.25-.01-.25-.04-.49-.07-.73.04-.05-.01-.1 0-.15.02-.75-.04-1.41.3-2.11.5-.38.06-.73.31-1.12.32-.07-.07-.14-.13-.2-.21-1.99-1.68-4.1-3.19-6.23-4.66-2.91-2.01-5.53-4.32-7.66-7.16-.02-.02-.04-.04-.06-.05.07-.02.14.01.23.03.5.12.95.41 1.48.43.31.18.67.18 1.01.24.12.1.25.11.4.06.31.19.67.17 1.01.22.06.01.11 0 .17-.02 1.27.31 2.57.42 3.88.41.37.11.74.11 1.11.02.76.13 1.51.13 2.26-.01 1.1.02 2.19-.07 3.26-.29.31.07.61.02.9-.09.66.03 1.32-.04 1.95-.25.31.02.6-.08.85-.23.45-.27.27-.57-.06-.83-.11-.01-.22 0-.29.11-.01.01-.01.02-.02.03v-.01h-.02c.02-.03.05-.06.06-.1-.42-.69-.91-.07-1.36-.07-.01.02-.02.04-.03.05v-.01c.02-.04.05-.08.06-.12.05-.23-.04-.43-.16-.61-.03-.02-.06-.05-.09-.08.03-.2.02-.4-.07-.6-.28.05-.57.1-.77-.19l-.23-.06c-.51-.17-1.03-.26-1.57-.24-1.65-.24-3.31-.5-4.99-.45-1.01-.24-2.04-.11-3.06-.11-.97.01-1.94-.05-2.9.16-1.06-.07-2.09.15-3.13.3-.34.05-.63.02-.94-.1v.03c-.01 0-.01-.01-.02-.01-.02.01-.03.01-.05.01l.05-.05c-.03-.26-.2-.43-.39-.57-2.24-1.7-3.53-4.11-4.82-6.51-1.66-3.1-3.1-6.32-4.81-9.4-.2-.26-.31-.57-.48-.85.08.05.14.19.23.14.15.22.31.44.57.54.05-.02.1-.03.15-.05-.04.04-.08.06-.15.05.63.66 1.25 1.33 2.05 1.78.93.89 1.95 1.65 3.14 2.17-.02-.16-.17-.35.01-.48.17-.12.21.15.42.16-.17-.62.06-1.12.47-1.55-.25-.27-.93-.25-.62-.94.09-.21-.13-.18-.26-.23-.22-.09-.23-.11-.03-.42.06-.09.03-.14-.01-.22-.12-.2-.23-.41-.46-.53-.05.13-.12.37-.15.36-.2-.03-.12-.2-.14-.33.01-.03.02-.05.02-.08-.39-.52-.8-1.04-.43-1.75-.17-.05-.33-.13-.5-.15-1.79-.2-3.53-.72-5.33-.84-.06 0-.12-.02-.18-.04-.03-.07-.07-.13-.1-.2-.81-1.66-1.69-3.28-2.57-4.9-.12-.19-.26-.38-.43-.54a.363.363 0 0 0-.17-.07c.28-.88.12-1.73-.11-2.59-.06-.06-.11-.11-.17-.15.11-.3-.06-.57-.12-.84-.03-.77-.13-1.54-.38-2.27l.02-.02c.05-.08.08-.16.09-.25-.04-.61.07-1.28-.56-1.69.03-.03.07-.08.1-.14-.48-2.73-.94-5.47-1.4-8.21-.4-2.4-.75-4.8-1.26-7.18.08.2.11.43.33.55l.24.66c.8 1.62 1.43 3.33 2.46 4.83.18.26.33.56.63.71.25-.03.32.21.49.31.2.11.4.31.63.13.28-.22-.12-.4-.06-.66.29.37.47.76.57 1.19.18.15.37.07.55 0 .08-.15.18-.21.34-.11.34-.15.61-.36.66-.76-.07-.07-.16-.06-.25-.04-.16.02-.04-.14-.11-.18-.29-.28-.18-1.12-.97-.69-.1.05-.13.07-.1-.05.2-.67-.55-.64-.74-1.01a.896.896 0 0 0-.15-.19c-.28-.24-.64-.23-.95-.28-.09-.72 1.14-1.05.44-1.85.07.03.13.07.18.16.33.63.56.44.71-.11-.75-1.02-1.5-2.03-2.25-3.05-.18-.39-.4-.75-.72-1.04-.51-.87-1.04-1.72-1.72-2.47-.07-.17-.11-.36-.32-.43-.22-.44-.59-.78-.87-1.17-.05-.25-.09-.49-.14-.74-.63-3.86-1.44-7.68-2.31-11.48-.14-.63-.3-1.25-.45-1.88-.28.27-.56.53-.84.78.06.31.12.61.16.92-.2.02-.42.01-.61.08-1.36.55-2.74 1.08-3.92 1.99-.68.27-1.16.79-1.68 1.27-.17.07-.36.13-.42.34-.46.29-.85.66-1.15 1.11-.14.05-.25.13-.29.28-.78.64-1.37 1.43-1.87 2.3-.04.07-.09.14-.13.21-.26.29-.54.56-.61.96a.94.94 0 0 1-.12.22c-.24.25-.38.55-.47.88-.12.13-.21.28-.22.46-.04.07-.07.15-.11.22a.53.53 0 0 0-.2.45c-.09.29-.29.53-.3.85-.47 1.01-.57 2.09-.63 3.19-.16.64.18 1.26.04 1.88zm20.55 3.19c.01-.08.12-.15.2-.13.38.07.17.49.37.66-.23-.13-.6-.12-.57-.53zm9.6 31.44h.11c.01.04.02.07.03.12-.05-.05-.09-.08-.14-.12zm22.17 16.93c0-.02 0-.03.01-.05 0 .01.01.02.01.04-.01 0-.02.01-.02.01zm-12.12 1.65c.05-.03.11-.06.16-.08-.02.04-.06.07-.16.08zm44.36 22.49zm-2.99.23h.01c0-.01 0-.01-.01 0 .01-.01.02 0 .03 0v.01c-.01-.01-.02-.01-.03-.01zm-.16.05h-.02c.01-.01.02-.01.02-.02.01.01 0 .01 0 .02.01 0 .02-.01.03-.01-.01.01-.02.02-.02.03 0-.01-.01-.02-.01-.02zm-.9 1.35c.04 0 .07 0 .11-.01v.01c-.03 0-.07.01-.11 0zm-10.76 5.97s-.01 0 0 0c-.01 0-.01-.01 0 0 0-.01 0-.01 0 0zm1.33.23.03.03h-.01c0-.01-.01-.02-.02-.03zm.73 2.66.01-.01c0 .01 0 .02-.01.03.01 0 0-.01 0-.02zm-13.11-6.47c0-.05.01-.1.03-.14 0 .05-.01.1-.03.14.01 0 0 0 0 0zm.06.42c-.06-.05-.01-.1 0 0zm-1.08-2.25c.01-.01.01-.03.02-.04 0 .01.01.02.01.02-.01.01-.02.01-.03.02zm-12.43-9.67zm-8.56-16.63c.02-.03.04-.05.06-.09l.02.02a.27.27 0 0 1-.08.07zm-10.52-2.61zm2.18-1.24c-.01.02-.02.04-.03.07-.01-.04 0-.07.03-.07zm-9.27-23.98c-.04.02-.08.05-.12.07.02-.04.06-.07.12-.07zm-9.51-34.52c.01-.01.02-.01.03-.02v.01c-.01 0-.02.01-.03.01zm-8.21 6.96c.01-.01.01-.02.02-.03v.02s-.01 0-.01.01c0-.01 0-.01-.01 0z" fill="#027800" data-color="1"></path>
        <path d="M251.19 327.07c-.1-.16-.03-.3.09-.39.3-.23.49-.56.81-.79.78-.55 1.08-.51 1.51.32.04.08.07.16.1.25.03.14.02.26-.08.37-.45.01-.84-.17-1.22-.38-.17-.09-.52-.19-.36.27.03.08.03.17.02.26-.02.14-.04.29-.24.3-.25.02-.48.04-.63-.21z" fill="#027800" data-color="1"></path>
        <path d="M251.68 328.08c.1.06.16.17.12.3-.28-.2-.41.16-.63.18-.33.03-.45-.16-.52-.42-.02-.1-.03-.21-.05-.31.35.08.75.03 1.08.25z" fill="#027800" data-color="1"></path>
        <path d="M228.14 295.43c.45 1.42 1.96 2.3 3.26 1.9 1.38-.43 2.28-2.06 1.86-3.39-.45-1.41-2.02-2.18-3.51-1.71-1.33.42-2.04 1.84-1.61 3.2zm.7-.18c-.31-.95.18-2 1.08-2.29 1.1-.36 2.3.17 2.63 1.17.31.92-.31 2.05-1.32 2.39-.96.33-2.06-.25-2.39-1.27z" fill="#027800" data-color="1"></path>
        <path d="M216.65 256.51c.33.95 1.57 1.55 2.64 1.22.89-.28 1.33-1.08 1.06-1.94-.31-.98-1.59-1.65-2.59-1.34-.29.09-.71.23-.7.47.03.58-.63.94-.41 1.59zm.74-.29c-.14-.47.13-.92.63-1.06.57-.16 1.45.29 1.62.82.14.43-.12.89-.58 1.05-.61.22-1.49-.21-1.67-.81z" fill="#027800" data-color="1"></path>
        <path d="M222.69 260.08c-.25.46-.26.96-.08 1.57.05.22.22.5.46.73.4.39.88.46 1.29.2.33-.21.54-.76.37-1.19-.21-.52-.46-1.03-.83-1.46-.41-.48-.9-.42-1.21.15zm1.16 1.76c-.01-.1.11-.2.17-.29.3.1.34.34.33.58 0 .25-.14.31-.31.13-.1-.1-.17-.27-.19-.42zm-.39-1.41c.15-.24.51-.02.54.3.04.38-.26.58-.5.8-.22.19-.41.19-.57-.1-.01-.33.19-.47.53-1z" fill="#027800" data-color="1"></path>
        <path d="M277.79 329.3c-1.26.34-2.44-.66-2.27-1.95.13-1 .72-1.71 1.61-2.07.57-.23 1.22-.31 1.69.32-.15.35-.39.41-.78.36-.86-.1-1.56.46-1.73 1.28-.09.43-.02.84.33 1.12.38.3.81.32 1.24.1.75-.37 1.08-1.03.9-1.88-.1-.47.04-.67.49-.7.75 1.42.06 3.01-1.48 3.42z" fill="#027800" data-color="1"></path>
        <path d="M316.96 249.43c3.03 2.95 6.4 5.86 9.36 9.15 6.83 7.6 10.88 16.54 12.14 26.71.04.32.03.64.08.96.16 1.04-.3 1.36-1.3 1.24-7.56-.89-14.9-2.61-21.78-5.98-8.18-4.01-14.26-10.19-18.25-18.3-2.63-5.35-4.81-10.91-7.23-16.37-2.03-4.58-4.46-8.88-8.4-12.15-.24-.19-.5-.7-.41-.87.16-.28.58-.55.92-.58 1.48-.13 2.96-.21 4.44-.24 10.42-.23 20.64.95 30.45 4.66 9.3 3.52 17 9.07 22.09 17.82 3.22 5.53 4.83 11.58 5.44 17.91.44 4.49.37 8.97-.22 13.44-.06.44-.5.83-.77 1.24-.22-.41-.59-.81-.65-1.24-2.04-15.32-9.18-27.4-22.5-35.56-1.09-.67-2.25-1.23-3.38-1.83-.09-.05-.21-.06-.03-.01zm26.72 35.79c.03-.15.08-.3.08-.44-.08-4.4.05-8.82-.3-13.2-.41-5.03-1.94-9.82-4.3-14.3-4.89-9.31-12.72-15.18-22.36-18.85-10.8-4.1-22.03-5.08-33.47-4.52-.37.02-.73.12-1.32.21 5.55 4.72 8.15 10.97 10.76 17.24 1.68 4.03 3.39 8.06 5.37 11.94 3.6 7.07 8.85 12.63 15.81 16.52 5.74 3.2 11.95 5 18.37 6.17 1.75.32 3.53.51 5.55.8-2.2-18.94-12.85-31.65-28.53-41.09 14.21 3.88 30.35 15.93 34.34 39.52z" fill="#000000" data-color="2"></path>
        <path d="M377.05 225.39c-6.83 3.03-12.46 7.55-16.9 13.5-5.31 7.1-8.33 15.1-9.37 23.89-.05.41-.47.77-.73 1.16-.23-.32-.62-.62-.66-.96-.98-8.01-.67-15.93 1.74-23.68 2.84-9.1 8.36-16.14 16.39-21.23 7.31-4.63 15.41-7.01 23.89-8.27 6.45-.96 12.92-1.19 19.42-.75.36.02.73.01 1.07.11.73.21.95.77.37 1.24-6.18 5.08-8.66 12.36-11.57 19.39-2.26 5.45-4.62 10.84-8.15 15.63-5.04 6.84-11.74 11.37-19.66 14.23-5.11 1.85-10.39 2.97-15.77 3.66-2.06.27-2.2.12-1.95-1.99 1.3-10.89 5.86-20.26 13.35-28.19 2.41-2.55 5.19-4.76 7.8-7.13.24-.22.49-.41.73-.61zm34.06-15.46c.05.04-.01-.04-.08-.05-.28-.04-.55-.07-.83-.09-6.14-.45-12.25-.14-18.33.73-8.04 1.15-15.75 3.33-22.79 7.51-6.5 3.86-11.59 9.04-14.96 15.86-2.19 4.44-3.42 9.13-4.03 14.02-.56 4.53-.56 9.05-.04 13.6 1.46-9.35 4.96-17.81 11.03-25.09 5.56-6.67 18.74-15 22.85-14.59-15.41 9.33-25.98 22.01-28.12 40.73.46 0 .7.02.93 0 5.67-.68 11.21-1.88 16.57-3.89 9.32-3.49 16.71-9.34 21.44-18.16 2.36-4.4 4.19-9.09 6.31-13.62 1.62-3.47 3.14-7.02 5.05-10.33 1.35-2.36 3.28-4.4 5-6.63z" fill="#000000" data-color="2"></path>
        <path d="M334.6 199.63c.94 2.42 1.92 4.68 2.72 7.01 4.12 11.99 4.36 23.95-.43 35.85-.55 1.36-.81 1.45-1.98.62-6.13-4.32-11.75-9.18-16.18-15.3-5.41-7.48-7.9-15.89-7.6-25.08.16-4.96.69-9.9 1.08-14.85.4-5.13.75-10.25-.77-15.28-.17-.57-.43-1.13-.56-1.71-.11-.5-.09-1.03-.12-1.55.48.06 1.03.01 1.44.21 2.7 1.31 5.44 2.57 8.05 4.05 7.8 4.4 14.89 9.72 20.76 16.57 4.96 5.79 8.56 12.28 10.04 19.83 1.63 8.3.44 16.33-2.94 23.97-1.8 4.08-4.22 7.9-6.37 11.83-.08.14-.15.32-.27.39-.34.19-.72.32-1.08.48-.06-.38-.29-.83-.17-1.13 1.64-4.08 2.7-8.29 3.23-12.66 1.25-10.25-.66-19.87-5.83-28.81-.82-1.42-1.78-2.76-2.68-4.13-.05-.09-.15-.14-.34-.31zm7.09 44.67c4.36-6.61 7.66-13.65 8.85-21.59.76-5.12.47-10.15-.87-15.13-2.06-7.63-6.29-13.98-11.71-19.6-5.64-5.85-12.2-10.5-19.31-14.38-2.27-1.24-4.61-2.35-7.15-3.64.1.52.11.76.19.97 1.18 3.12 1.75 6.35 1.6 9.66-.19 4.19-.58 8.38-.83 12.57-.23 3.79-.57 7.59-.56 11.38.03 7.2 1.89 13.95 5.68 20.11 3.25 5.29 7.45 9.72 12.25 13.61 1.92 1.55 3.9 3.02 5.96 4.6 2.06-4.41 3.14-8.83 3.59-13.38 1.3-13.13-2.47-25.01-9.47-36.38 9.77 9.09 19.9 27.31 11.78 51.2z" fill="#000000" data-color="2"></path>
        <path d="M343.68 285.22c-3.99-23.58-20.14-35.64-34.34-39.5 15.69 9.43 26.34 22.14 28.53 41.09-2.03-.29-3.8-.48-5.55-.8-6.42-1.17-12.63-2.97-18.37-6.17-6.96-3.89-12.21-9.46-15.81-16.52-1.98-3.89-3.69-7.91-5.37-11.94-2.61-6.27-5.21-12.52-10.76-17.24.59-.1.95-.19 1.32-.21 11.44-.57 22.67.41 33.47 4.52 9.64 3.66 17.47 9.54 22.36 18.85 2.36 4.48 3.89 9.27 4.3 14.3.35 4.38.22 8.8.3 13.2.01.12-.05.27-.08.42z" fill="#027800" data-color="1"></path>
        <path d="M411.11 209.93c-1.72 2.23-3.64 4.27-5 6.62-1.91 3.31-3.43 6.86-5.05 10.33-2.12 4.53-3.95 9.22-6.31 13.62-4.73 8.82-12.13 14.67-21.44 18.16-5.36 2.01-10.9 3.2-16.57 3.89-.23.03-.46 0-.93 0 2.13-18.72 12.71-31.39 28.12-40.73-4.11-.41-17.28 7.91-22.85 14.59-6.07 7.29-9.58 15.74-11.03 25.09-.52-4.54-.52-9.07.04-13.6.61-4.89 1.85-9.58 4.03-14.02 3.36-6.82 8.46-12 14.96-15.86 7.04-4.18 14.75-6.37 22.79-7.51 6.08-.87 12.2-1.18 18.33-.73.28.02.56.05.83.09.07.02.13.1.08.06z" fill="#027800" data-color="1"></path>
        <path d="M341.69 244.3c8.12-23.9-2.01-42.11-11.77-51.19 7 11.37 10.77 23.25 9.47 36.38-.45 4.55-1.53 8.98-3.59 13.38-2.06-1.58-4.04-3.05-5.96-4.6-4.8-3.89-9-8.32-12.25-13.61-3.79-6.17-5.65-12.91-5.68-20.11-.02-3.79.33-7.59.56-11.38.26-4.19.64-8.38.83-12.57.15-3.31-.42-6.55-1.6-9.66-.08-.21-.09-.45-.19-.97 2.54 1.29 4.88 2.4 7.15 3.64 7.11 3.88 13.66 8.53 19.31 14.38 5.42 5.62 9.65 11.97 11.71 19.6 1.34 4.98 1.63 10.01.87 15.13-1.2 7.93-4.5 14.97-8.86 21.58z" fill="#027800" data-color="1"></path>
    </g>
</svg>